<svg width="140" height="114" viewBox="0 0 140 114" fill="none" xmlns="http://www.w3.org/2000/svg">
<path d="M63.0666 57.5093L62.4709 57.393V58V62V62.5H62.9709H83.4226L83.4709 62.5094L83.5192 62.5H103.971H104.471V62V58V57.393L103.875 57.5093L83.4709 61.4906L63.0666 57.5093Z" fill="#DFCFC2" stroke="black"/>
<path d="M30.072 107V86.84H33.516L44.212 104.088L43.54 104.228V86.84H46.396V107H42.952L32.256 89.752L32.928 89.612V107H30.072ZM50.5525 107V86.84H53.5205V107H50.5525ZM57.6618 107V86.84H66.2018C67.6578 86.84 68.8992 87.0827 69.9258 87.568C70.9525 88.0533 71.7365 88.744 72.2778 89.64C72.8378 90.536 73.1178 91.6 73.1178 92.832C73.1178 94.0827 72.8378 95.1653 72.2778 96.08C71.7365 96.976 70.9432 97.676 69.8978 98.18C68.8712 98.684 67.6392 98.936 66.2018 98.936H59.9298V96.472H66.0618C67.3872 96.472 68.3952 96.1547 69.0858 95.52C69.7952 94.8853 70.1498 93.9987 70.1498 92.86C70.1498 91.7027 69.8045 90.816 69.1138 90.2C68.4232 89.584 67.4058 89.276 66.0618 89.276H60.6298V107H57.6618ZM76.1736 107V86.84H84.7136C86.1696 86.84 87.4109 87.0827 88.4376 87.568C89.4642 88.0533 90.2482 88.744 90.7896 89.64C91.3496 90.536 91.6296 91.6 91.6296 92.832C91.6296 94.0827 91.3496 95.1653 90.7896 96.08C90.2482 96.976 89.4549 97.676 88.4096 98.18C87.3829 98.684 86.1509 98.936 84.7136 98.936H78.4416V96.472H84.5736C85.8989 96.472 86.9069 96.1547 87.5976 95.52C88.3069 94.8853 88.6616 93.9987 88.6616 92.86C88.6616 91.7027 88.3162 90.816 87.6256 90.2C86.9349 89.584 85.9176 89.276 84.5736 89.276H79.1416V107H76.1736ZM103.509 107.28C102.072 107.28 100.756 107.028 99.5612 106.524C98.3666 106.001 97.3306 105.273 96.4532 104.34C95.5759 103.407 94.8852 102.305 94.3812 101.036C93.8959 99.7667 93.6532 98.3667 93.6532 96.836C93.6532 94.82 94.0732 93.0373 94.9132 91.488C95.7532 89.9387 96.9106 88.7347 98.3852 87.876C99.8786 86.9987 101.577 86.56 103.481 86.56C105.423 86.56 107.131 86.9987 108.605 87.876C110.08 88.7347 111.237 89.9387 112.077 91.488C112.936 93.0373 113.365 94.8293 113.365 96.864C113.365 98.376 113.113 99.776 112.609 101.064C112.124 102.333 111.443 103.435 110.565 104.368C109.688 105.283 108.643 106.001 107.429 106.524C106.235 107.028 104.928 107.28 103.509 107.28ZM103.481 104.76C104.825 104.76 106.011 104.424 107.037 103.752C108.064 103.061 108.867 102.119 109.445 100.924C110.043 99.7293 110.341 98.3573 110.341 96.808C110.341 95.2773 110.052 93.9333 109.473 92.776C108.895 91.6 108.092 90.6947 107.065 90.06C106.039 89.4067 104.844 89.08 103.481 89.08C102.119 89.08 100.924 89.4067 99.8972 90.06C98.8892 90.6947 98.0959 91.5907 97.5172 92.748C96.9572 93.9053 96.6772 95.2587 96.6772 96.808C96.6772 98.376 96.9666 99.7573 97.5452 100.952C98.1239 102.147 98.9172 103.08 99.9252 103.752C100.952 104.424 102.137 104.76 103.481 104.76ZM116.642 107V86.84H120.086L130.782 104.088L130.11 104.228V86.84H132.966V107H129.522L118.826 89.752L119.498 89.612V107H116.642Z" fill="black"/>
<path d="M107.816 67.648H118.296V81.04H117.032V68.864H109.048V81.104H107.816V67.648ZM108.632 73.2H117.56V74.384H108.632V73.2ZM108.616 78.864H117.592V80.064H108.616V78.864ZM122.024 69.936H135.992V71.152H122.024V69.936ZM125.224 77.072H132.68V78.288H125.224V77.072ZM128.344 66.576H129.608V81.28H128.344V66.576ZM127.976 70.336L129.048 70.704C127.624 74.096 125.112 77.152 122.344 78.768C122.152 78.464 121.752 78.016 121.48 77.776C124.152 76.384 126.696 73.408 127.976 70.336ZM130.008 70.384C131.272 73.424 133.784 76.336 136.552 77.664C136.248 77.92 135.832 78.4 135.64 78.736C132.808 77.168 130.344 74.112 128.936 70.752L130.008 70.384Z" fill="black"/>
<path d="M136 12C136 39.0619 112.472 61 83.4854 61C54.4985 61 31 39.0619 31 12" stroke="black"/>
<path d="M68.5382 57.8922C68.2774 57.8357 68.1018 57.5892 68.1443 57.3258C68.533 54.9149 69.5568 52.7545 71.0417 51.2299C72.6218 49.6076 74.6086 48.8236 76.6083 49.0334C78.608 49.2432 80.4747 50.4314 81.8384 52.3626C83.1136 54.1685 83.8619 56.5008 83.9599 58.9489C83.9712 59.2311 83.7422 59.461 83.4598 59.4624V59.4624C83.1766 59.4638 82.9471 59.2349 82.9342 58.9519C82.8378 56.8419 82.1874 54.8344 81.0872 53.2763C79.8981 51.5924 78.2704 50.5563 76.5267 50.3734C74.783 50.1904 73.0505 50.874 71.6727 52.2887C70.4087 53.5865 69.5278 55.4128 69.1713 57.4548C69.1193 57.7526 68.8336 57.9561 68.5382 57.8922V57.8922Z" fill="#3272B8"/>
<path d="M76.6855 49.6086C76.3271 49.6632 75.9958 49.4039 75.9815 49.0417C75.9337 47.8259 76.0472 46.6066 76.3184 45.4388C76.6393 44.0571 77.1739 42.7771 77.8889 41.6789C78.6039 40.5807 79.4838 39.6879 80.4736 39.0565C81.4635 38.425 82.5419 38.0684 83.6416 38.0089C84.7412 37.9494 85.8384 38.1884 86.8645 38.7109C87.8905 39.2334 88.8234 40.0281 89.6048 41.0454C90.3862 42.0627 90.9992 43.2806 91.4056 44.6231C91.752 45.7676 91.9419 46.9815 91.9678 48.2093C91.9752 48.5597 91.6792 48.8348 91.3291 48.8196V48.8196C90.9878 48.8048 90.7231 48.5192 90.7136 48.1777C90.6856 47.1685 90.5263 46.1715 90.2413 45.2302C89.8986 44.098 89.3815 43.0708 88.7225 42.2128C88.0635 41.3548 87.2767 40.6845 86.4113 40.2439C85.546 39.8032 84.6206 39.6017 83.6932 39.6518C82.7657 39.702 81.8561 40.0027 81.0213 40.5353C80.1865 41.0679 79.4443 41.8209 78.8413 42.7471C78.2383 43.6733 77.7874 44.7528 77.5168 45.9182C77.29 46.8949 77.1939 47.9144 77.2317 48.9313C77.244 49.2627 77.0133 49.5588 76.6855 49.6086V49.6086Z" fill="#3272B8"/>
<path d="M59.9709 47.5C59.9709 46.0292 60.2063 44.5748 60.6619 43.231C61.1175 41.8873 61.7832 40.6841 62.6157 39.6996C63.4482 38.715 64.429 37.971 65.4946 37.5157C66.5601 37.0604 67.6867 36.904 68.8013 37.0567C69.9158 37.2094 70.9935 37.6677 71.9645 38.4019C72.9355 39.1362 73.7782 40.13 74.4378 41.3189C75.0975 42.5079 75.5595 43.8655 75.7939 45.3037C76.0283 46.742 76.0299 48.2289 75.7985 49.668L74.5727 49.3285C74.7678 48.1147 74.7665 46.8607 74.5688 45.6477C74.3711 44.4346 73.9815 43.2896 73.4251 42.2869C72.8687 41.2841 72.1581 40.4459 71.3391 39.8267C70.5202 39.2074 69.6113 38.8209 68.6712 38.6921C67.7312 38.5634 66.7811 38.6953 65.8824 39.0792C64.9836 39.4632 64.1564 40.0907 63.4543 40.9211C62.7522 41.7515 62.1908 42.7662 61.8065 43.8995C61.4222 45.0329 61.2237 46.2595 61.2237 47.5H59.9709Z" fill="#3272B8"/>
<path d="M68.6183 36.9061C68.2671 36.9255 67.9672 36.6519 67.9723 36.3002C67.9906 35.0407 68.1814 33.7939 68.5371 32.62C68.953 31.2472 69.585 30.0051 70.3917 28.9748C71.1984 27.9445 72.1617 27.1492 73.2186 26.6409C74.2755 26.1327 75.4023 25.9229 76.5252 26.0252C77.6481 26.1276 78.7419 26.5398 79.7351 27.235C80.7283 27.9301 81.5986 28.8925 82.2891 30.0593C82.9795 31.2261 83.4746 32.571 83.7419 34.006C83.9671 35.2147 84.0265 36.4644 83.9187 37.6968C83.8863 38.0679 83.5269 38.3122 83.1647 38.2253V38.2253C82.849 38.1496 82.6442 37.8467 82.6729 37.5233C82.7654 36.4793 82.7158 35.4205 82.525 34.3966C82.2995 33.1862 81.882 32.052 81.2996 31.0679C80.7173 30.0838 79.9833 29.2721 79.1456 28.6859C78.3079 28.0996 77.3854 27.7519 76.4384 27.6656C75.4913 27.5793 74.541 27.7562 73.6496 28.1849C72.7582 28.6135 71.9458 29.2843 71.2654 30.1532C70.5851 31.0222 70.052 32.0698 69.7012 33.2276C69.408 34.1955 69.2476 35.2221 69.2262 36.2601C69.2191 36.6004 68.9582 36.8873 68.6183 36.9061V36.9061Z" fill="#3272B8"/>
<path d="M84.6676 38.4565C84.3106 38.5032 83.9861 38.2406 83.9761 37.8807C83.9422 36.6515 84.073 35.4222 84.3639 34.2493C84.7071 32.8659 85.2656 31.5911 86.004 30.5059C86.7424 29.4207 87.6446 28.5488 88.6533 27.9454C89.662 27.3421 90.7552 27.0204 91.8637 27.0009C92.9721 26.9814 94.0715 27.2645 95.0922 27.8322C96.1128 28.3998 97.0325 29.2397 97.7928 30.2985C98.5531 31.3573 99.1374 32.612 99.5087 33.9829C99.8244 35.1484 99.9803 36.3763 99.9704 37.6099C99.9676 37.966 99.6547 38.2339 99.3002 38.2V38.2C98.9651 38.168 98.7168 37.8771 98.718 37.5404C98.7216 36.5177 98.5901 35.5002 98.3283 34.5336C98.0151 33.3774 97.5223 32.3193 96.8811 31.4263C96.2398 30.5333 95.4642 29.8249 94.6034 29.3461C93.7425 28.8674 92.8153 28.6286 91.8804 28.6451C90.9456 28.6615 90.0236 28.9328 89.1728 29.4417C88.3221 29.9506 87.5612 30.686 86.9384 31.6012C86.3157 32.5164 85.8446 33.5916 85.5552 34.7584C85.3126 35.7363 85.202 36.7607 85.2272 37.7856C85.2354 38.1189 84.9982 38.4132 84.6676 38.4565V38.4565Z" fill="#3272B8"/>
<path d="M46.6078 40.3687C46.2802 40.3183 46.0465 40.0218 46.0902 39.6933C46.2808 38.2613 46.6962 36.8946 47.3118 35.681C48.0109 34.3028 48.9484 33.1612 50.0477 32.3493C51.1471 31.5373 52.3771 31.0781 53.6375 31.0091C54.8978 30.9401 56.1528 31.2633 57.2998 31.9522C58.4469 32.6412 59.4535 33.6764 60.2377 34.9733C61.0218 36.2703 61.5611 37.7922 61.8116 39.4149C62.0621 41.0376 62.0166 42.715 61.679 44.3103C61.4098 45.5824 60.9608 46.7735 60.3578 47.8229C60.1287 48.2215 59.5788 48.2452 59.2849 47.8917V47.8917C59.0843 47.6504 59.0722 47.3062 59.2357 47.0384C59.806 46.1046 60.2271 45.0271 60.4719 43.8702C60.7567 42.5248 60.795 41.11 60.5837 39.7414C60.3724 38.3729 59.9176 37.0893 59.2563 35.9954C58.595 34.9016 57.7459 34.0285 56.7785 33.4474C55.8111 32.8664 54.7527 32.5938 53.6897 32.652C52.6267 32.7102 51.5893 33.0975 50.6621 33.7823C49.7349 34.467 48.9442 35.4299 48.3546 36.5922C47.8599 37.5675 47.5185 38.66 47.3483 39.8057C47.2951 40.1644 46.9662 40.4238 46.6078 40.3687V40.3687Z" fill="#3272B8"/>
<path d="M54.0579 30.702C53.7869 30.5531 53.6574 30.2323 53.764 29.9419C54.574 27.7354 55.949 25.964 57.6554 24.9442C59.4898 23.8478 61.5719 23.7006 63.4853 24.5321C65.3988 25.3636 67.0026 27.1125 67.9761 29.429C68.86 31.5325 69.165 33.9633 68.8505 36.315C68.7998 36.694 68.4138 36.9219 68.0503 36.8036V36.8036C67.747 36.7049 67.5661 36.3965 67.6098 36.0806C67.8861 34.0816 67.6308 32.012 66.8791 30.2231C66.0581 28.2694 64.7054 26.7944 63.0916 26.0931C61.4778 25.3918 59.7217 25.5159 58.1746 26.4406C56.8175 27.2518 55.7088 28.6266 55.0139 30.3413C54.861 30.7187 54.4149 30.8981 54.0579 30.702V30.702Z" fill="#3272B8"/>
<path d="M42.6667 24.3902C42.5087 24.0924 42.5699 23.7223 42.8341 23.5128C43.7844 22.7592 44.8456 22.2722 45.9505 22.0858C47.2277 21.8702 48.5256 22.0624 49.734 22.6462C50.9424 23.2299 52.0256 24.1878 52.8915 25.4385C53.661 26.5499 54.2387 27.8632 54.5876 29.2888C54.6631 29.5975 54.4839 29.9078 54.1835 30.0114V30.0114C53.8199 30.1369 53.4306 29.9123 53.3303 29.541C53.0316 28.4353 52.5679 27.4162 51.9644 26.5444C51.234 25.4895 50.3204 24.6816 49.3013 24.1893C48.2821 23.697 47.1874 23.5348 46.1103 23.7166C45.323 23.8495 44.5621 24.1633 43.8616 24.6406C43.4621 24.9129 42.8934 24.8172 42.6667 24.3902V24.3902Z" fill="#3272B8"/>
<path d="M34.3154 26.9576C34.1111 26.7212 34.0881 26.3756 34.2759 26.1258C34.9686 25.2043 35.7861 24.4575 36.6878 23.9249C37.7264 23.3115 38.8529 22.9961 39.9918 23C41.1307 23.0039 42.2558 23.327 43.292 23.9475C44.3281 24.5681 45.2514 25.4719 46 26.5984C46.7486 27.725 47.3053 29.0484 47.6329 30.48C47.9604 31.9117 48.0513 33.4187 47.8994 34.9002C47.7476 36.3816 47.3564 37.8035 46.7522 39.0706C46.2991 40.0207 45.7341 40.8674 45.0798 41.5801C44.7517 41.9374 44.183 41.8272 43.964 41.3943V41.3943C43.8104 41.0905 43.8854 40.7238 44.1231 40.4802C44.7418 39.8462 45.2725 39.0744 45.6902 38.1983C46.1999 37.1296 46.5297 35.9304 46.6578 34.6809C46.7859 33.4314 46.7093 32.1604 46.433 30.953C46.1567 29.7455 45.6872 28.6294 45.0558 27.6792C44.4244 26.7291 43.6458 25.9668 42.7719 25.4434C41.898 24.9201 40.9491 24.6476 39.9885 24.6443C39.0279 24.641 38.0779 24.907 37.202 25.4244C36.5628 25.8019 35.9739 26.3069 35.4554 26.9198C35.1601 27.2688 34.6144 27.3035 34.3154 26.9576V26.9576Z" fill="#3272B8"/>
<path d="M35.4883 29.3973C35.3279 29.2326 35.2951 28.9803 35.4196 28.787C35.9436 27.9737 36.5857 27.308 37.3083 26.8308C38.1269 26.2904 39.0272 26.0062 39.9407 26.0001C40.8541 25.994 41.7566 26.266 42.5792 26.7955C43.4018 27.3249 44.1229 28.0978 44.6875 29.0553C45.2521 30.0127 45.6453 31.1294 45.8371 32.3202C46.0289 33.511 46.0143 34.7444 45.7943 35.9265C45.5743 37.1086 45.1548 38.2081 44.5678 39.1413C44.1264 39.8429 43.599 40.4366 43.0096 40.8982C42.7136 41.13 42.2946 40.9741 42.1758 40.6174V40.6174C42.088 40.354 42.1983 40.068 42.4216 39.9031C42.9641 39.5028 43.4479 38.9721 43.8479 38.3361C44.343 37.5491 44.6968 36.6218 44.8824 35.6248C45.0679 34.6278 45.0802 33.5875 44.9185 32.5832C44.7567 31.5789 44.4251 30.6371 43.9489 29.8296C43.4727 29.0221 42.8645 28.3702 42.1707 27.9237C41.4769 27.4771 40.7158 27.2477 39.9454 27.2529C39.175 27.2581 38.4157 27.4977 37.7253 27.9535C37.2038 28.2978 36.7322 28.7585 36.33 29.314C36.1304 29.5898 35.7258 29.6412 35.4883 29.3973V29.3973Z" fill="#3272B8"/>
<path d="M32.1774 16.3836C32.2964 16.027 32.7154 15.8713 33.0113 16.1032C33.5181 16.5004 33.9795 16.9956 34.3799 17.574C34.9339 18.3743 35.3595 19.317 35.6307 20.3443C35.9018 21.3717 36.0128 22.4621 35.9568 23.5486C35.9119 24.4188 35.7607 25.2718 35.5101 26.0744C35.4153 26.3782 35.0531 26.4903 34.7908 26.3101V26.3101C34.6025 26.1808 34.5292 25.9397 34.6009 25.7228C34.8373 25.0084 34.9791 24.2437 35.0194 23.4627C35.0666 22.5463 34.973 21.6267 34.7443 20.7602C34.5156 19.8937 34.1567 19.0987 33.6894 18.4237C33.3224 17.8935 32.8947 17.4462 32.423 17.0979C32.1997 16.933 32.0896 16.6469 32.1774 16.3836V16.3836Z" fill="#3272B8"/>
<path d="M36.3016 31.3299C36.1196 31.1479 36.0892 30.8605 36.2498 30.6592C36.6352 30.1765 37.0907 29.7835 37.5942 29.5011C38.2169 29.1519 38.8966 28.9811 39.5814 29.0017C40.2663 29.0222 40.9383 29.2337 41.5462 29.6198C42.1541 30.006 42.6818 30.5567 43.0891 31.23C43.4965 31.9032 43.7726 32.6813 43.8966 33.5048C44.0206 34.3283 43.9891 35.1755 43.8045 35.9819C43.6199 36.7883 43.2871 37.5325 42.8315 38.1578C42.5208 38.5841 42.1587 38.9475 41.7587 39.2361C41.4662 39.4472 41.073 39.2844 40.9584 38.9424V38.9424C40.8646 38.6622 40.995 38.3598 41.2354 38.188C41.5511 37.9624 41.8367 37.677 42.0813 37.3413C42.4352 36.8556 42.6937 36.2775 42.8371 35.6511C42.9805 35.0248 43.005 34.3666 42.9087 33.7269C42.8124 33.0873 42.5979 32.4829 42.2815 31.9599C41.9651 31.4369 41.5552 31.0091 41.083 30.7092C40.6108 30.4092 40.0888 30.245 39.5568 30.229C39.0248 30.213 38.4968 30.3457 38.0131 30.617C37.7077 30.7883 37.425 31.012 37.1732 31.2803C36.9407 31.5282 36.5419 31.5703 36.3016 31.3299V31.3299Z" fill="#3272B8"/>
<path d="M37.1215 33.1506C36.9713 33.0004 36.97 32.7547 37.1381 32.6249C37.3982 32.4243 37.6901 32.2671 38.0027 32.1605C38.4369 32.0125 38.8993 31.966 39.3543 32.0246C39.8093 32.0832 40.2448 32.2454 40.6273 32.4987C41.0098 32.752 41.3291 33.0897 41.5607 33.4857C41.7922 33.8818 41.9299 34.3256 41.963 34.7832C41.9962 35.2408 41.924 35.6999 41.7519 36.1252C41.5798 36.5504 41.3125 36.9306 40.9705 37.2364C40.7244 37.4565 40.4442 37.6338 40.1418 37.762C39.9463 37.8449 39.7328 37.7233 39.6756 37.5188V37.5188C39.6184 37.3143 39.7399 37.105 39.9315 37.0136C40.1222 36.9226 40.2995 36.8048 40.4579 36.6631C40.7123 36.4357 40.9111 36.153 41.039 35.8367C41.167 35.5205 41.2207 35.1791 41.196 34.8388C41.1714 34.4985 41.069 34.1684 40.8968 33.8739C40.7246 33.5794 40.4871 33.3283 40.2027 33.1399C39.9182 32.9515 39.5944 32.8309 39.256 32.7873C38.9176 32.7437 38.5738 32.7783 38.2509 32.8884C38.0497 32.957 37.86 33.0538 37.6873 33.1753C37.5136 33.2975 37.2716 33.3007 37.1215 33.1506V33.1506Z" fill="#3272B8"/>
<path d="M32.5323 19.9017C32.659 19.7313 32.902 19.6944 33.0548 19.8419C33.4511 20.2245 33.7363 20.7109 33.8754 21.2491C34.0145 21.7872 34.0008 22.3509 33.8396 22.8777C33.7775 23.0808 33.5471 23.1662 33.3536 23.0786V23.0786C33.1601 22.991 33.0779 22.7634 33.131 22.5578C33.225 22.1938 33.226 21.8096 33.1308 21.4416C33.0357 21.0735 32.8486 20.738 32.5899 20.4651C32.4438 20.311 32.4055 20.0721 32.5323 19.9017V19.9017Z" fill="#3272B8"/>
<path d="M91.6855 48.6086C91.3271 48.6632 90.9958 48.4039 90.9815 48.0417C90.8836 45.5543 91.4628 43.0936 92.625 41.1064C93.8912 38.9414 95.7499 37.5087 97.8072 37.1117C99.8645 36.7147 101.959 37.3847 103.646 38.9796C105.214 40.4616 106.316 42.634 106.757 45.0897C106.815 45.4096 106.605 45.7127 106.288 45.7868V45.7868C105.926 45.8715 105.571 45.6256 105.499 45.261C105.103 43.2746 104.192 41.5222 102.914 40.3139C101.491 38.9687 99.7246 38.4037 97.9894 38.7385C96.2543 39.0733 94.6867 40.2817 93.6188 42.1076C92.6425 43.7768 92.154 45.8421 92.2317 47.9313C92.244 48.2626 92.0133 48.5588 91.6855 48.6086V48.6086Z" fill="#3272B8"/>
<path d="M99.6855 37.6086C99.3271 37.6632 98.9958 37.4039 98.9815 37.0417C98.8944 34.8298 99.3426 32.6317 100.269 30.7666C101.288 28.7138 102.822 27.1937 104.606 26.4693C106.389 25.7449 108.31 25.862 110.034 26.8003C111.629 27.6677 112.963 29.1867 113.843 31.1243C113.97 31.4037 113.87 31.7306 113.618 31.9051V31.9051C113.271 32.1448 112.792 31.9995 112.603 31.6229C111.863 30.1525 110.804 28.9988 109.555 28.3193C108.1 27.5279 106.48 27.4292 104.976 28.0401C103.472 28.651 102.178 29.9331 101.318 31.6644C100.541 33.2303 100.163 35.0744 100.232 36.9313C100.244 37.2626 100.013 37.5588 99.6855 37.6086V37.6086Z" fill="#3272B8"/>
<path d="M108.354 45.3805C107.999 45.5885 107.542 45.4187 107.434 45.0219C107.144 43.9525 106.988 42.8267 106.972 41.6882C106.953 40.2757 107.151 38.8727 107.555 37.5631C107.958 36.2535 108.559 35.0642 109.321 34.0665C110.083 33.0688 110.99 32.2831 111.989 31.7566C112.988 31.2301 114.057 30.9735 115.133 31.0022C116.21 31.0309 117.27 31.3443 118.252 31.9236C119.233 32.503 120.116 33.3364 120.846 34.3739C121.481 35.2754 121.99 36.3149 122.35 37.4444C122.445 37.7416 122.297 38.0585 122.015 38.1911V38.1911C121.654 38.3606 121.229 38.1629 121.096 37.7869C120.801 36.947 120.406 36.1716 119.926 35.4898C119.31 34.6148 118.566 33.9119 117.738 33.4233C116.91 32.9347 116.016 32.6703 115.108 32.6461C114.2 32.6219 113.298 32.8383 112.456 33.2824C111.614 33.7265 110.848 34.3891 110.206 35.2306C109.563 36.0721 109.056 37.0751 108.716 38.1796C108.376 39.2841 108.209 40.4675 108.225 41.6587C108.239 42.6675 108.384 43.6645 108.653 44.6069C108.737 44.9034 108.62 45.2245 108.354 45.3805V45.3805Z" fill="#3272B8"/>
<path d="M54.6526 51.9224C54.4644 51.7562 54.4116 51.4827 54.5346 51.2639C55.492 49.5618 56.8208 48.2758 58.3488 47.58C59.9875 46.8339 61.7664 46.8069 63.4178 47.5032C65.0691 48.1995 66.5033 49.5813 67.5042 51.4404C68.4287 53.1575 68.9374 55.1958 68.9693 57.29C68.9736 57.5761 68.7331 57.8015 68.4472 57.7904V57.7904C68.1678 57.7796 67.9499 57.5465 67.9444 57.2669C67.9094 55.4584 67.4666 53.6997 66.6678 52.2161C65.795 50.595 64.5444 49.3902 63.1045 48.783C61.6646 48.1759 60.1134 48.1994 58.6845 48.85C57.4399 49.4167 56.3469 50.4325 55.5279 51.7735C55.3411 52.0794 54.9213 52.1595 54.6526 51.9224V51.9224Z" fill="#3272B8"/>
<path d="M43.074 41.9232C42.9563 41.6642 43.0298 41.3559 43.2643 41.195C44.4474 40.3831 45.7689 39.9713 47.1085 40.0016C48.5976 40.0352 50.0501 40.6137 51.3022 41.6721C52.5544 42.7305 53.5566 44.2266 54.1961 45.992C54.7758 47.5927 55.0365 49.3572 54.9569 51.1206C54.9436 51.416 54.6744 51.6287 54.3817 51.5858V51.5858C54.1131 51.5465 53.9228 51.3048 53.9348 51.0336C54.0031 49.4985 53.7758 47.9627 53.2711 46.5692C52.7135 45.0297 51.8396 43.7251 50.7477 42.8023C49.6559 41.8794 48.3894 41.3749 47.0909 41.3456C46.0358 41.3218 44.9936 41.6124 44.0416 42.1906C43.7005 42.3977 43.2391 42.2865 43.074 41.9232V41.9232Z" fill="#3272B8"/>
<path d="M84.5486 59.4811C84.2567 59.5197 83.9913 59.3051 83.9804 59.0109C83.8842 56.4233 84.5207 53.8728 85.7757 51.8567C87.1181 49.7002 89.0582 48.3319 91.1693 48.0528C93.2803 47.7738 95.3894 48.6069 97.0324 50.3688C98.5794 52.0277 99.594 54.382 99.8849 56.9642C99.9154 57.235 99.7192 57.4758 99.449 57.5115V57.5115C99.1571 57.5501 98.8937 57.3354 98.8578 57.0431C98.5871 54.8377 97.7098 52.831 96.3845 51.4098C94.9517 49.8734 93.1127 49.147 91.2719 49.3903C89.4311 49.6336 87.7394 50.8268 86.5688 52.7072C85.4766 54.4618 84.9217 56.6806 85.0028 58.9324C85.0127 59.2047 84.8187 59.4454 84.5486 59.4811V59.4811Z" fill="#3272B8"/>
<path d="M99.5486 57.4811C99.2567 57.5197 98.9913 57.3051 98.9804 57.0109C98.8998 54.8409 99.3341 52.6864 100.229 50.8479C101.198 48.8567 102.65 47.3526 104.351 46.5789C106.052 45.8052 107.902 45.8071 109.602 46.5843C111.193 47.3113 112.564 48.6768 113.526 50.4815C113.644 50.7027 113.585 50.9746 113.392 51.1354V51.1354C113.12 51.3631 112.706 51.2735 112.528 50.966C111.7 49.534 110.567 48.4486 109.265 47.8537C107.783 47.176 106.17 47.1744 104.687 47.849C103.203 48.5237 101.937 49.8352 101.092 51.5715C100.314 53.1709 99.9348 55.0446 100.003 56.9324C100.013 57.2047 99.8187 57.4454 99.5486 57.4811V57.4811Z" fill="#3272B8"/>
<path d="M113.586 50.799C113.292 50.8507 113.015 50.6419 112.997 50.344C112.888 48.5783 113.122 46.8019 113.679 45.1817C114.294 43.393 115.278 41.8662 116.521 40.7745C117.763 39.6829 119.214 39.0701 120.708 39.0057C122.052 38.9478 123.382 39.335 124.577 40.1274C124.816 40.2855 124.894 40.5949 124.778 40.8569V40.8569C124.617 41.2226 124.157 41.3399 123.812 41.1381C122.85 40.5751 121.801 40.3035 120.742 40.3492C119.439 40.4053 118.174 40.9397 117.09 41.8916C116.007 42.8435 115.149 44.1748 114.612 45.7346C114.126 47.1485 113.923 48.6988 114.018 50.2397C114.034 50.5086 113.851 50.7523 113.586 50.799V50.799Z" fill="#3272B8"/>
<path d="M122.435 37.9846C122.151 38.1794 121.76 38.0604 121.65 37.7341C121.012 35.8327 120.816 33.7198 121.094 31.6637C121.404 29.3772 122.282 27.2899 123.591 25.7283C124.901 24.1668 126.568 23.2191 128.332 23.0336C129.951 22.8632 131.567 23.344 132.968 24.4048C133.191 24.5735 133.251 24.8783 133.127 25.1285V25.1285C132.951 25.4842 132.487 25.5773 132.157 25.3553C131.008 24.5803 129.711 24.237 128.414 24.3735C126.876 24.5353 125.422 25.3617 124.28 26.7233C123.138 28.0849 122.372 29.905 122.103 31.8988C121.853 33.7453 122.041 35.6442 122.638 37.3402C122.722 37.5769 122.642 37.8427 122.435 37.9846V37.9846Z" fill="#3272B8"/>
<path d="M113.489 31.587C113.218 31.5539 113.019 31.3139 113.048 31.0422C113.227 29.3661 113.713 27.7689 114.466 26.3887C115.291 24.8757 116.407 23.6776 117.701 22.9171C118.995 22.1566 120.419 21.861 121.829 22.0606C123.1 22.2406 124.318 22.8177 125.382 23.7402C125.588 23.9188 125.629 24.2184 125.496 24.456V24.456C125.303 24.7988 124.838 24.8651 124.527 24.6236C123.671 23.9576 122.714 23.5379 121.719 23.3971C120.49 23.223 119.248 23.4808 118.12 24.1439C116.992 24.8071 116.018 25.8518 115.298 27.1711C114.659 28.3433 114.241 29.695 114.075 31.115C114.041 31.4066 113.781 31.6226 113.489 31.587V31.587Z" fill="#3272B8"/>
<path d="M70.4533 58.2117C70.224 58.1582 70.0703 57.9408 70.1057 57.708C70.4009 55.7692 71.1664 54.0326 72.274 52.8052C73.459 51.4918 74.9491 50.8572 76.4489 51.027C77.9487 51.1969 79.3488 52.1588 80.3715 53.7221C81.3207 55.1729 81.8806 57.0433 81.9609 59.0087C81.9712 59.2621 81.7656 59.4686 81.5119 59.47V59.47C81.2573 59.4713 81.0511 59.2655 81.0389 59.0112C80.9602 57.374 80.4884 55.8186 79.6965 54.6083C78.8306 53.2848 77.6454 52.4704 76.3756 52.3266C75.1059 52.1829 73.8443 52.7202 72.841 53.832C71.9352 54.8359 71.2997 56.2419 71.0322 57.8159C70.9859 58.0886 70.7227 58.2746 70.4533 58.2117V58.2117Z" fill="#3272B8"/>
<path d="M78.5418 50.6699C78.2732 50.7278 78.0128 50.5402 77.9953 50.2659C77.9314 49.2661 77.993 48.2567 78.1782 47.2849C78.3951 46.1466 78.7767 45.0848 79.2989 44.1668C79.821 43.2488 80.4723 42.4947 81.2112 41.9525C81.9502 41.4102 82.7606 41.0916 83.5912 41.017C84.4217 40.9424 85.2541 41.1134 86.0355 41.5191C86.8168 41.9247 87.5301 42.5562 88.1299 43.3735C88.7298 44.1907 89.203 45.1757 89.5196 46.266C89.7943 47.2117 89.9459 48.2187 89.968 49.2383C89.9736 49.4955 89.7583 49.6993 89.5012 49.6904V49.6904C89.2502 49.6818 89.0536 49.4735 89.0468 49.2225C89.0238 48.3784 88.8961 47.5454 88.6686 46.762C88.4005 45.839 87.9998 45.005 87.492 44.3132C86.9842 43.6213 86.3803 43.0867 85.7188 42.7432C85.0573 42.3998 84.3525 42.255 83.6494 42.3182C82.9463 42.3814 82.2601 42.651 81.6345 43.1101C81.0089 43.5692 80.4575 44.2076 80.0155 44.9848C79.5734 45.762 79.2503 46.661 79.0667 47.6246C78.9088 48.4535 78.857 49.3147 78.9131 50.1673C78.9286 50.4036 78.7733 50.6201 78.5418 50.6699V50.6699Z" fill="#3272B8"/>
<path d="M62.4215 48.0628C62.175 48.0434 61.9868 47.8327 62.0057 47.5861C62.0831 46.572 62.2888 45.5846 62.6139 44.6718C62.986 43.6267 63.5064 42.7019 64.1426 41.955C64.7788 41.2082 65.5169 40.6556 66.3109 40.3318C67.1048 40.008 67.9375 39.9199 68.7565 40.0732C69.5756 40.2264 70.3635 40.6177 71.0709 41.2225C71.7783 41.8272 72.3899 42.6324 72.8674 43.5876C73.3449 44.5428 73.678 45.6274 73.8458 46.7734C73.9878 47.7428 74.0089 48.7384 73.9092 49.7155C73.8805 49.9972 73.5999 50.1755 73.3286 50.0947V50.0947C73.1068 50.0287 72.9684 49.8097 72.9931 49.5796C73.0834 48.7362 73.0673 47.8756 72.9447 47.0382C72.8026 46.068 72.5206 45.1497 72.1163 44.3411C71.7121 43.5324 71.1943 42.8507 70.5954 42.3387C69.9966 41.8267 69.3295 41.4955 68.636 41.3657C67.9426 41.236 67.2377 41.3105 66.5655 41.5847C65.8933 41.8588 65.2684 42.3267 64.7298 42.9589C64.1912 43.5912 63.7506 44.3742 63.4355 45.259C63.1715 46.0006 63.0004 46.8003 62.9291 47.6224C62.9065 47.8829 62.6821 48.0834 62.4215 48.0628V48.0628Z" fill="#3272B8"/>
<path d="M70.431 37.5C70.1769 37.5 69.97 37.2939 69.9797 37.04C70.0184 36.0271 70.1849 35.0309 70.4721 34.099C70.8027 33.0263 71.2861 32.0619 71.892 31.2663C72.4979 30.4706 73.2133 29.8607 73.9933 29.4749C74.7734 29.0892 75.6012 28.9358 76.4251 29.0244C77.2489 29.113 78.0509 29.4417 78.7809 29.9898C79.5109 30.538 80.1531 31.2939 80.6673 32.21C81.1815 33.1262 81.5566 34.1829 81.7691 35.314C81.9503 36.2785 82.0099 37.2793 81.9462 38.2706C81.9285 38.545 81.668 38.7325 81.3993 38.6744V38.6744C81.1679 38.6243 81.0128 38.4078 81.0284 38.1716C81.0844 37.3261 81.0343 36.4721 80.8797 35.6493C80.6998 34.6917 80.3823 33.7971 79.947 33.0214C79.5116 32.2458 78.9679 31.6059 78.3499 31.1418C77.7319 30.6777 77.0529 30.3994 76.3554 30.3244C75.6579 30.2494 74.9571 30.3793 74.2967 30.7059C73.6363 31.0325 73.0306 31.5488 72.5176 32.2224C72.0046 32.8961 71.5954 33.7125 71.3155 34.6207C71.0791 35.388 70.9393 36.2068 70.9016 37.04C70.8901 37.2939 70.6852 37.5 70.431 37.5V37.5Z" fill="#3272B8"/>
<path d="M86.4693 39.0683C86.2069 39.0955 85.9745 38.8971 85.9716 38.6333C85.9609 37.6638 86.0673 36.6976 86.2871 35.7768C86.5436 34.7025 86.9492 33.7118 87.4801 32.863C88.011 32.0142 88.6563 31.3245 89.3783 30.8345C90.1002 30.3445 90.884 30.0641 91.6836 30.0098C92.4831 29.9554 93.2823 30.1284 94.034 30.5183C94.7857 30.9082 95.4747 31.5073 96.0604 32.2803C96.6462 33.0532 97.1168 33.9844 97.4447 35.019C97.7288 35.9156 97.9006 36.8742 97.9534 37.8519C97.967 38.1028 97.7679 38.3109 97.5168 38.3191V38.3191C97.2598 38.3275 97.0469 38.1236 97.0309 37.867C96.9811 37.0685 96.8374 36.2862 96.6051 35.5529C96.3275 34.677 95.9291 33.8887 95.4332 33.2343C94.9373 32.5799 94.3539 32.0727 93.7176 31.7426C93.0812 31.4124 92.4046 31.266 91.7276 31.312C91.0507 31.358 90.3871 31.5954 89.7759 32.0103C89.1647 32.4251 88.6183 33.0091 88.1689 33.7277C87.7195 34.4463 87.3761 35.285 87.1589 36.1945C86.9749 36.9655 86.8847 37.7742 86.8916 38.586C86.8936 38.8312 86.7133 39.0431 86.4693 39.0683V39.0683Z" fill="#3272B8"/>
<path d="M48.4681 41.0389C48.2425 40.979 48.0955 40.7607 48.1342 40.5305C48.3288 39.373 48.693 38.2848 49.2045 37.3372C49.775 36.2801 50.5127 35.4275 51.3583 34.8481C52.2039 34.2687 53.1336 33.9786 54.0728 34.0012C55.0119 34.0238 55.9342 34.3585 56.7654 34.9782C57.5966 35.598 58.3135 36.4855 58.8583 37.5695C59.4032 38.6534 59.7608 39.9034 59.9023 41.2188C60.0439 42.5343 59.9655 43.8784 59.6734 45.1431C59.4441 46.1362 59.088 47.0586 58.6246 47.8653C58.4417 48.1836 57.9978 48.1855 57.7857 47.8859V47.8859C57.6557 47.7024 57.657 47.458 57.776 47.2673C58.2345 46.5329 58.5829 45.6723 58.7988 44.7377C59.046 43.667 59.1124 42.529 58.9925 41.4153C58.8727 40.3016 58.5699 39.2434 58.1087 38.3257C57.6474 37.4081 57.0405 36.6566 56.3368 36.1319C55.6331 35.6073 54.8523 35.3239 54.0572 35.3048C53.2621 35.2857 52.4749 35.5313 51.759 36.0218C51.0432 36.5123 50.4186 37.2341 49.9356 38.1291C49.5291 38.8822 49.2324 39.7403 49.0613 40.6533C49.0097 40.9284 48.7386 41.1108 48.4681 41.0389V41.0389Z" fill="#3272B8"/>
<path d="M56.4907 30.5309C56.3446 30.3688 56.3161 30.131 56.4297 29.9446C57.2371 28.62 58.3153 27.678 59.5185 27.2528C60.8151 26.7945 62.1826 26.9626 63.4041 27.7304C64.6257 28.4981 65.6313 29.8216 66.2616 31.491C66.8335 33.0058 67.0667 34.7266 66.9352 36.4262C66.9137 36.7031 66.6462 36.8876 66.3764 36.8216V36.8216C66.1483 36.7659 65.9991 36.5484 66.018 36.3144C66.1344 34.8657 65.9377 33.3973 65.4501 32.1059C64.9165 30.6926 64.0651 29.5721 63.0309 28.9221C61.9968 28.2721 60.839 28.1298 59.7413 28.5178C58.8297 28.84 58.0028 29.5125 57.3492 30.4541C57.1488 30.7427 56.726 30.7918 56.4907 30.5309V30.5309Z" fill="#3272B8"/>
<path d="M44.6716 26.1773C44.5895 25.9159 44.6922 25.6283 44.9362 25.5037C45.5389 25.1959 46.1735 25.0264 46.8158 25.0028C47.6035 24.974 48.3875 25.1652 49.123 25.5656C49.8585 25.966 50.5311 26.5677 51.1025 27.3363C51.6075 28.0157 52.0247 28.8138 52.3359 29.6942C52.4086 29.8999 52.3244 30.1264 52.1398 30.2427V30.2427C51.8732 30.4107 51.52 30.2804 51.4043 29.9872C51.1552 29.3564 50.84 28.7812 50.4688 28.2817C49.985 27.631 49.4156 27.1216 48.7929 26.7826C48.1702 26.4436 47.5065 26.2817 46.8396 26.3062C46.4205 26.3215 46.0054 26.4103 45.6034 26.5694C45.2353 26.7152 44.7902 26.5551 44.6716 26.1773V26.1773Z" fill="#3272B8"/>
<path d="M93.431 48.5C93.1769 48.5 92.97 48.2938 92.9797 48.0399C93.0532 46.1183 93.5853 44.2836 94.494 42.8409C95.4749 41.2835 96.8261 40.2918 98.2899 40.0549C99.7538 39.818 101.228 40.3525 102.432 41.5564C103.557 42.6822 104.372 44.3198 104.745 46.1904C104.79 46.4157 104.655 46.6358 104.437 46.7074V46.7074C104.165 46.7965 103.879 46.6216 103.817 46.3423C103.484 44.843 102.813 43.5337 101.901 42.6214C100.882 41.6022 99.6337 41.1497 98.3944 41.3503C97.155 41.5508 96.0111 42.3904 95.1806 43.7089C94.4225 44.9127 93.9739 46.4388 93.9016 48.04C93.8901 48.2938 93.6852 48.5 93.431 48.5V48.5Z" fill="#3272B8"/>
<path d="M101.464 38.0135C101.203 38.0379 100.973 37.8387 100.971 37.5759C100.961 35.9256 101.29 34.3027 101.922 32.9081C102.615 31.3777 103.637 30.2027 104.837 29.5559C106.037 28.909 107.351 28.8243 108.587 29.3143C109.731 29.7676 110.752 30.6905 111.523 31.9622C111.636 32.1487 111.607 32.3864 111.46 32.548V32.548C111.225 32.8081 110.802 32.7579 110.603 32.4691C109.982 31.5688 109.202 30.9116 108.339 30.5699C107.293 30.155 106.18 30.2267 105.164 30.7744C104.148 31.322 103.283 32.3167 102.696 33.6124C102.165 34.7844 101.887 36.1467 101.891 37.5332C101.892 37.7792 101.709 37.9907 101.464 38.0135V38.0135Z" fill="#3272B8"/>
<path d="M110.202 46.1182C109.943 46.3154 109.566 46.2069 109.47 45.895C109.214 45.0632 109.054 44.1773 108.996 43.2708C108.923 42.1357 109.012 40.9914 109.257 39.906C109.503 38.8205 109.9 37.8162 110.425 36.9526C110.95 36.089 111.592 35.3838 112.314 34.8791C113.035 34.3743 113.821 34.0802 114.624 34.0142C115.427 33.9483 116.231 34.1119 116.989 34.4953C117.747 34.8787 118.442 35.474 119.034 36.2459C119.559 36.9301 119.993 37.7405 120.316 38.6386C120.39 38.8437 120.307 39.0704 120.124 39.1882V39.1882C119.858 39.3592 119.502 39.2309 119.384 38.9375C119.125 38.2935 118.797 37.7089 118.411 37.2052C117.91 36.5517 117.321 36.0477 116.68 35.7231C116.038 35.3985 115.357 35.26 114.677 35.3158C113.997 35.3716 113.332 35.6206 112.721 36.048C112.11 36.4753 111.567 37.0723 111.122 37.8035C110.678 38.5346 110.341 39.3849 110.134 40.3038C109.926 41.2228 109.85 42.1915 109.912 43.1525C109.966 43.9857 110.121 44.7982 110.371 45.554C110.439 45.7593 110.375 45.9875 110.202 46.1182V46.1182Z" fill="#3272B8"/>
<path d="M56.3284 52.8491C56.1752 52.6957 56.1361 52.4607 56.2406 52.2708C56.9518 50.9797 57.9126 50.0047 59.0089 49.4673C60.1943 48.8862 61.4786 48.846 62.681 49.3526C63.8834 49.8591 64.9435 50.8867 65.7122 52.291C66.4161 53.5769 66.8433 55.1193 66.9465 56.7338C66.9624 56.9827 66.7682 57.1921 66.5191 57.2053V57.2053C66.2604 57.219 66.0424 57.0166 66.0235 56.7582C65.926 55.4253 65.5674 54.1539 64.985 53.09C64.3341 51.9011 63.4366 51.0311 62.4187 50.6022C61.4007 50.1734 60.3135 50.2074 59.3098 50.6994C58.4804 51.106 57.7425 51.8085 57.1653 52.7335C56.9829 53.0257 56.5718 53.0929 56.3284 52.8491V52.8491Z" fill="#3272B8"/>
<path d="M44.37 43.3657C44.2798 43.1181 44.3623 42.8375 44.5869 42.6997C45.3862 42.2095 46.2528 41.9707 47.1268 42.0029C48.1372 42.0401 49.1245 42.4383 49.9973 43.1605C50.87 43.8827 51.5998 44.9056 52.119 46.1342C52.5838 47.2342 52.8662 48.4671 52.9469 49.7401C52.9626 49.9892 52.7682 50.1985 52.519 50.2114V50.2114C52.2604 50.2249 52.0427 50.0224 52.024 49.7641C51.9481 48.7192 51.7116 47.7084 51.3293 46.8038C50.8898 45.7637 50.272 44.8977 49.5331 44.2863C48.7942 43.6748 47.9583 43.3377 47.1028 43.3062C46.4925 43.2837 45.8863 43.4174 45.3129 43.6979C44.9587 43.8712 44.5051 43.7362 44.37 43.3657V43.3657Z" fill="#3272B8"/>
<path d="M86.5198 59.5134C86.2525 59.5631 85.9995 59.3724 85.9859 59.1008C85.9377 58.1366 86.0058 57.1666 86.1883 56.2326C86.4027 55.1354 86.7705 54.1103 87.2699 53.2182C87.7693 52.3262 88.3901 51.5853 89.0954 51.0397C89.8008 50.4941 90.5764 50.1547 91.3761 50.0419C92.1758 49.929 92.9834 50.0449 93.7509 50.3827C94.5184 50.7204 95.2302 51.2732 95.844 52.0081C96.4578 52.7431 96.9611 53.6452 97.3241 54.661C97.6402 55.5458 97.8443 56.5011 97.9278 57.4835C97.9487 57.7284 97.7647 57.9401 97.52 57.9637V57.9637C97.2581 57.989 97.0292 57.79 97.004 57.5281C96.9278 56.7356 96.7587 55.9655 96.503 55.2499C96.1957 54.3899 95.7696 53.6261 95.2499 53.0039C94.7302 52.3817 94.1276 51.9137 93.4779 51.6277C92.8281 51.3418 92.1444 51.2437 91.4673 51.3392C90.7903 51.4348 90.1337 51.722 89.5365 52.184C88.9393 52.6459 88.4137 53.2731 87.9909 54.0284C87.5681 54.7836 87.2567 55.6514 87.0752 56.5804C86.9203 57.3734 86.8627 58.1971 86.9043 59.0157C86.9164 59.2543 86.7546 59.4697 86.5198 59.5134V59.5134Z" fill="#3272B8"/>
<path d="M101.461 56.9736C101.2 56.996 100.972 56.7962 100.971 56.5341C100.966 54.8401 101.319 53.1786 101.988 51.7656C102.72 50.2192 103.79 49.0561 105.034 48.455C106.278 47.854 107.627 47.8482 108.873 48.4386C110.031 48.9869 111.041 50.0211 111.771 51.3993C111.872 51.5905 111.828 51.8244 111.673 51.9745V51.9745C111.426 52.2116 111.02 52.1377 110.844 51.8444C110.246 50.8459 109.465 50.0934 108.582 49.6751C107.526 49.1753 106.384 49.1801 105.331 49.689C104.278 50.1979 103.372 51.1826 102.752 52.4918C102.19 53.6785 101.892 55.0724 101.891 56.4947C101.891 56.7414 101.707 56.9524 101.461 56.9736V56.9736Z" fill="#3272B8"/>
<path d="M115.44 49.6764C115.183 49.6846 114.968 49.4807 114.974 49.2237C115.004 47.9036 115.251 46.6093 115.698 45.4448C116.197 44.1429 116.927 43.0484 117.816 42.2696C118.706 41.4908 119.723 41.0548 120.768 41.0048C121.678 40.9613 122.581 41.2117 123.41 41.7341C123.632 41.8737 123.711 42.1532 123.62 42.3986V42.3986C123.482 42.7677 123.027 42.8985 122.676 42.7211C122.076 42.4185 121.44 42.2772 120.799 42.3079C119.915 42.3502 119.053 42.7193 118.3 43.3786C117.547 44.038 116.929 44.9646 116.507 46.0668C116.135 47.036 115.927 48.1112 115.895 49.2091C115.888 49.4603 115.691 49.6684 115.44 49.6764V49.6764Z" fill="#3272B8"/>
<path d="M125.163 39.8951C124.951 40.1952 124.507 40.194 124.323 39.8758C123.506 38.4573 123.03 36.6954 122.976 34.8503C122.914 32.719 123.42 30.6325 124.393 29.005C125.367 27.3776 126.736 26.3281 128.231 26.0649C129.608 25.8224 130.998 26.264 132.166 27.3055C132.347 27.4664 132.386 27.7299 132.277 27.9458V27.9458C132.104 28.2895 131.643 28.3604 131.335 28.1304C130.422 27.4504 129.379 27.1766 128.344 27.3587C127.079 27.5815 125.919 28.47 125.095 29.8479C124.271 31.2257 123.843 32.9922 123.896 34.7966C123.944 36.4577 124.396 38.0391 125.171 39.2761C125.291 39.4668 125.292 39.7113 125.163 39.8951V39.8951Z" fill="#3272B8"/>
<path d="M115.457 31.1694C115.228 31.1143 115.076 30.8967 115.112 30.6645C115.303 29.4439 115.682 28.2961 116.222 27.3041C116.823 26.2022 117.606 25.3262 118.502 24.7532C119.397 24.1802 120.379 23.9277 121.36 24.0179C122.215 24.0965 123.047 24.4335 123.8 25.004C124 25.1556 124.058 25.4267 123.958 25.6569V25.6569C123.802 26.0145 123.342 26.1152 123.011 25.9094C122.471 25.574 121.892 25.3733 121.3 25.3189C120.47 25.2425 119.639 25.4563 118.88 25.9414C118.122 26.4266 117.459 27.1682 116.951 28.1011C116.518 28.8947 116.208 29.8062 116.039 30.7761C115.991 31.0494 115.726 31.2345 115.457 31.1694V31.1694Z" fill="#3272B8"/>
<path d="M72.3316 58.5253C72.1544 58.4778 72.037 58.3087 72.0612 58.1268C72.2582 56.6453 72.7684 55.3184 73.5063 54.3804C74.2963 53.3761 75.2897 52.8908 76.2896 53.0207C77.2895 53.1505 78.2228 53.8861 78.9046 55.0816C79.5348 56.1864 79.9076 57.6096 79.9635 59.1056C79.9712 59.3098 79.8056 59.4762 79.6013 59.4774V59.4774C79.3959 59.4787 79.2294 59.3127 79.22 59.1075C79.1655 57.915 78.8637 56.7835 78.3605 55.9011C77.8051 54.9274 77.0449 54.3282 76.2305 54.2224C75.4161 54.1166 74.6069 54.5119 73.9634 55.33C73.3922 56.0562 72.9884 57.0685 72.8121 58.203C72.7767 58.4308 72.5542 58.5849 72.3316 58.5253V58.5253Z" fill="#3272B8"/>
<path d="M80.5824 51.6357C80.3087 51.7274 80.019 51.5457 79.9982 51.2578C79.9451 50.5227 79.9695 49.7769 80.0713 49.0526C80.1989 48.1452 80.4448 47.2929 80.7926 46.5533C81.1404 45.8138 81.5819 45.2042 82.0872 44.7659C82.5925 44.3275 83.1498 44.0707 83.7215 44.0126C84.2932 43.9546 84.8658 44.0968 85.4008 44.4295C85.9357 44.7622 86.4204 45.2778 86.8222 45.9412C87.2239 46.6047 87.5332 47.4007 87.7293 48.2752C87.8909 48.996 87.9724 49.7564 87.9709 50.5209C87.9703 50.7849 87.7346 50.9818 87.4728 50.9483V50.9483C87.2386 50.9183 87.0681 50.7133 87.0675 50.4771C87.0659 49.8984 87.0028 49.3234 86.8805 48.7777C86.7287 48.1006 86.4892 47.4844 86.1782 46.9708C85.8672 46.4572 85.492 46.0581 85.0779 45.8005C84.6637 45.5429 84.2204 45.4328 83.7778 45.4778C83.3353 45.5227 82.9038 45.7216 82.5126 46.0609C82.1214 46.4002 81.7797 46.8721 81.5104 47.4447C81.2412 48.0172 81.0507 48.677 80.952 49.3795C80.8706 49.9588 80.8531 50.5559 80.8997 51.1433C80.9169 51.3607 80.7892 51.5663 80.5824 51.6357V51.6357Z" fill="#3272B8"/>
<path d="M64.3948 48.8543C64.1674 48.8132 64.0062 48.6075 64.031 48.3778C64.1159 47.5905 64.2895 46.8343 64.544 46.1476C64.8417 45.344 65.2428 44.6546 65.72 44.1268C66.1971 43.599 66.7389 43.2452 67.3082 43.0898C67.8774 42.9344 68.4606 42.9811 69.0177 43.2265C69.5748 43.472 70.0926 43.9105 70.5355 44.5119C70.9785 45.1132 71.3361 45.8633 71.5838 46.7105C71.8315 47.5577 71.9635 48.482 71.9706 49.4199C71.9759 50.1181 71.9119 50.8116 71.782 51.474C71.7179 51.8007 71.3372 51.9357 71.0675 51.7405V51.7405C70.9064 51.624 70.836 51.4201 70.8796 51.2262C71.0081 50.6544 71.0719 50.0485 71.0673 49.438C71.0618 48.7119 70.9596 47.9963 70.7679 47.3405C70.5761 46.6846 70.2992 46.104 69.9563 45.6384C69.6134 45.1728 69.2125 44.8334 68.7813 44.6433C68.35 44.4533 67.8985 44.4172 67.4578 44.5375C67.0172 44.6578 66.5977 44.9317 66.2283 45.3403C65.859 45.7489 65.5484 46.2826 65.3179 46.9047C65.1416 47.3806 65.0154 47.8997 64.9437 48.4404C64.9082 48.7083 64.6607 48.9023 64.3948 48.8543V48.8543Z" fill="#3272B8"/>
<path d="M72.5604 39.5236C72.288 39.6054 72.0073 39.4206 71.9901 39.1367C71.9415 38.334 71.9852 37.5219 72.1199 36.7423C72.2852 35.7859 72.5832 34.9039 72.991 34.1639C73.3988 33.4238 73.9055 32.8455 74.4723 32.4734C75.0391 32.1012 75.6508 31.9451 76.2605 32.0171C76.8702 32.089 77.4616 32.387 77.9894 32.8883C78.5171 33.3896 78.9672 34.0807 79.3049 34.9087C79.6427 35.7366 79.8591 36.6794 79.9377 37.6645C79.9992 38.435 79.975 39.2154 79.8674 39.9689C79.823 40.2799 79.4798 40.4377 79.2048 40.2858V40.2858C79.0253 40.1867 78.9329 39.9823 78.9657 39.78C79.0672 39.1528 79.0933 38.4985 79.0418 37.8532C78.981 37.0906 78.8134 36.3607 78.5519 35.7198C78.2905 35.0788 77.9421 34.5437 77.5335 34.1557C77.125 33.7676 76.6671 33.5369 76.1951 33.4812C75.7231 33.4255 75.2495 33.5464 74.8108 33.8345C74.372 34.1226 73.9797 34.5703 73.664 35.1431C73.3483 35.716 73.1176 36.3989 72.9896 37.1392C72.883 37.7561 72.85 38.3993 72.8917 39.0341C72.9062 39.2544 72.7719 39.4602 72.5604 39.5236V39.5236Z" fill="#3272B8"/>
<path d="M88.6301 40.8589C88.3548 40.9709 88.0469 40.7963 88.0185 40.5004C87.95 39.7858 87.9553 39.0562 88.0349 38.3419C88.1361 37.4336 88.3552 36.5709 88.6775 35.8109C88.9999 35.051 89.4182 34.4113 89.9045 33.9345C90.3909 33.4577 90.9341 33.1546 91.4981 33.0456C92.0622 32.9365 92.634 33.0238 93.1756 33.3018C93.7173 33.5798 94.2162 34.0421 94.6394 34.6578C95.0625 35.2736 95.4001 36.0287 95.6296 36.873C95.8214 37.5781 95.9341 38.3318 95.9633 39.0988C95.9728 39.3496 95.7662 39.5515 95.5153 39.5481V39.5481C95.2673 39.5447 95.0698 39.3419 95.0574 39.0942C95.0295 38.5333 94.9438 37.9829 94.8033 37.4663C94.6256 36.8127 94.3643 36.2281 94.0367 35.7514C93.7091 35.2747 93.3229 34.9169 92.9036 34.7016C92.4842 34.4864 92.0415 34.4188 91.6049 34.5032C91.1683 34.5877 90.7477 34.8223 90.3712 35.1914C89.9947 35.5606 89.6709 36.0557 89.4213 36.6441C89.1718 37.2324 89.0022 37.9003 88.9238 38.6034C88.859 39.1854 88.8579 39.7805 88.92 40.3614C88.9426 40.5733 88.8276 40.7786 88.6301 40.8589V40.8589Z" fill="#3272B8"/>
<path d="M81.4112 30.2719C81.2056 30.201 81.0772 29.9951 81.1133 29.7808C81.3175 28.571 81.7333 27.4802 82.3127 26.6429C82.9504 25.7213 83.7528 25.1553 84.6027 25.0276C85.4525 24.8999 86.3052 25.2173 87.0361 25.9333C87.7049 26.5885 88.2396 27.5461 88.5764 28.6854C88.6332 28.8774 88.5543 29.082 88.3884 29.194V29.194C88.1167 29.3773 87.745 29.2355 87.6324 28.9278C87.3728 28.2184 87.0085 27.6204 86.5697 27.1905C86.0038 26.6362 85.3437 26.3905 84.6858 26.4893C84.0279 26.5882 83.4067 27.0264 82.913 27.7399C82.5076 28.3257 82.2057 29.0719 82.0346 29.9015C81.9761 30.1854 81.6852 30.3665 81.4112 30.2719V30.2719Z" fill="#3272B8"/>
<path d="M66.6482 28.7896C66.4958 28.6652 66.4328 28.4603 66.498 28.2747C66.7966 27.4258 67.2097 26.6959 67.7073 26.1409C68.2644 25.5196 68.9092 25.1377 69.5816 25.0309C70.254 24.924 70.9322 25.0957 71.5527 25.5298C72.103 25.9149 72.5922 26.4952 72.9848 27.2265C73.078 27.4001 73.0528 27.6117 72.9304 27.7661V27.7661C72.6933 28.0652 72.2218 28.0118 72.0012 27.7005C71.7612 27.3618 71.4896 27.084 71.1955 26.8782C70.7151 26.542 70.1901 26.4091 69.6695 26.4919C69.149 26.5746 68.6498 26.8702 68.2185 27.3512C67.9205 27.6836 67.6617 28.0969 67.4528 28.5712C67.3147 28.8847 66.9136 29.0061 66.6482 28.7896V28.7896Z" fill="#3272B8"/>
<path d="M95.4898 29.5476C95.3113 29.4475 95.2175 29.2426 95.2674 29.0441C95.5508 27.9154 96.0245 26.9366 96.6361 26.2222C97.3074 25.438 98.1117 25.0111 98.9384 25.0002C99.7651 24.9893 100.574 25.3949 101.253 26.1613C101.872 26.8598 102.355 27.8266 102.65 28.9484C102.701 29.145 102.612 29.3498 102.437 29.4532V29.4532C102.162 29.6151 101.81 29.462 101.712 29.159C101.481 28.446 101.148 27.8303 100.737 27.367C100.212 26.7737 99.5858 26.4597 98.9457 26.4681C98.3057 26.4766 97.6831 26.8071 97.1634 27.4142C96.7553 27.8908 96.4265 28.5196 96.203 29.2436C96.1101 29.5448 95.7647 29.7017 95.4898 29.5476V29.5476Z" fill="#3272B8"/>
<path d="M108.744 27.4628C108.601 27.329 108.55 27.123 108.623 26.9419C108.948 26.1351 109.38 25.4545 109.888 24.951C110.458 24.386 111.106 24.0618 111.772 24.008C112.439 23.9542 113.104 24.1724 113.705 24.6428C114.239 25.0603 114.709 25.6647 115.08 26.4109C115.168 26.5863 115.136 26.7959 115.008 26.9448V26.9448C114.765 27.2295 114.305 27.1624 114.101 26.8482C113.869 26.4908 113.604 26.1925 113.314 25.9656C112.848 25.6015 112.333 25.4325 111.817 25.4742C111.301 25.5158 110.799 25.7668 110.358 26.2042C110.065 26.4946 109.805 26.8612 109.587 27.2875C109.426 27.6034 109.002 27.7059 108.744 27.4628V27.4628Z" fill="#3272B8"/>
<path d="M50.3862 41.9276C50.2232 41.8561 50.1287 41.6829 50.1633 41.5083C50.3583 40.5237 50.6955 39.6275 51.1476 38.8954C51.645 38.0901 52.2641 37.5118 52.9426 37.2185C53.6211 36.9252 54.3351 36.9272 55.013 37.2245C55.6909 37.5217 56.3086 38.1036 56.8042 38.9118C57.2998 39.72 57.6558 40.7258 57.8364 41.8284C58.0169 42.9309 58.0157 44.0913 57.8328 45.1928C57.65 46.2944 57.2919 47.2983 56.7947 48.1037C56.461 48.6441 56.0726 49.0823 55.6482 49.4009C55.3423 49.6306 54.94 49.4152 54.8781 49.0377V49.0377C54.8345 48.7718 54.9815 48.5151 55.2053 48.3651C55.5972 48.1025 55.9549 47.7166 56.257 47.2272C56.6596 46.5751 56.9495 45.7624 57.0976 44.8705C57.2456 43.9787 57.2466 43.0393 57.1004 42.1467C56.9542 41.254 56.666 40.4397 56.2648 39.7854C55.8635 39.1311 55.3634 38.6599 54.8146 38.4193C54.2658 38.1786 53.6877 38.177 53.1383 38.4144C52.589 38.6519 52.0878 39.1201 51.6852 39.7721C51.3577 40.3024 51.1047 40.9389 50.942 41.6379C50.8844 41.8851 50.6186 42.0295 50.3862 41.9276V41.9276Z" fill="#3272B8"/>
<path d="M58.3179 32.1889C58.2103 32.0141 58.2084 31.7921 58.326 31.6238C58.9107 30.7863 59.6348 30.2425 60.4102 30.0642C61.2688 29.8666 62.1437 30.1279 62.903 30.8086C63.6624 31.4893 64.265 32.5526 64.6201 33.8382C64.9268 34.9484 65.0345 36.1725 64.9348 37.3709C64.9106 37.6625 64.6124 37.841 64.3378 37.7398V37.7398C64.1353 37.6653 64.0136 37.4598 64.0334 37.245C64.1209 36.2947 64.0394 35.3207 63.796 34.4394C63.521 33.4441 63.0545 32.6209 62.4667 32.094C61.8788 31.567 61.2015 31.3647 60.5368 31.5177C60.1016 31.6178 59.6872 31.8666 59.3198 32.243C59.0366 32.533 58.5304 32.5341 58.3179 32.1889V32.1889Z" fill="#3272B8"/>
<path d="M45.8826 27.8004C45.8251 27.4994 45.9719 27.1872 46.2661 27.1017C47.1379 26.8481 48.0421 27.0708 48.8341 27.7482C49.7069 28.4948 50.3767 29.7367 50.7192 31.2307C50.7656 31.4329 50.6635 31.6381 50.4783 31.7315V31.7315C50.2028 31.8705 49.8711 31.7065 49.7876 31.4093C49.5045 30.402 49.0228 29.5686 48.4133 29.0472C47.9512 28.652 47.4397 28.4567 46.9269 28.4685C46.4711 28.479 45.9681 28.2482 45.8826 27.8004V27.8004Z" fill="#3272B8"/>
<path d="M95.4865 49.0782C95.2217 49.1221 94.9761 48.9274 94.9721 48.659C94.9618 47.9755 95.0179 47.2925 95.139 46.6355C95.2897 45.8177 95.538 45.0563 95.8698 44.3945C96.2015 43.7327 96.6103 43.1836 97.0727 42.7785C97.535 42.3735 98.042 42.1203 98.5645 42.0336C99.0871 41.9469 99.6151 42.0283 100.118 42.2732C100.622 42.518 101.09 42.9215 101.497 43.4607C101.905 43.9998 102.243 44.664 102.492 45.4154C102.701 46.0458 102.844 46.7272 102.917 47.4318C102.94 47.6631 102.776 47.8686 102.546 47.9067V47.9067C102.282 47.9506 102.038 47.7557 102.004 47.4894C101.944 47.0092 101.84 46.5451 101.697 46.112C101.504 45.5304 101.242 45.0162 100.927 44.5988C100.611 44.1814 100.249 43.869 99.8592 43.6794C99.4696 43.4899 99.0609 43.4269 98.6563 43.494C98.2518 43.5611 97.8593 43.7571 97.5014 44.0707C97.1434 44.3843 96.827 44.8094 96.5701 45.3217C96.3133 45.834 96.121 46.4235 96.0044 47.0566C95.9119 47.5585 95.8684 48.08 95.8749 48.6023C95.8778 48.8347 95.7159 49.0401 95.4865 49.0782V49.0782Z" fill="#3272B8"/>
<path d="M103.487 39.0782C103.222 39.1221 102.976 38.9274 102.972 38.659C102.954 37.466 103.139 36.2844 103.508 35.2458C103.93 34.0618 104.57 33.124 105.339 32.5658C106.107 32.0077 106.964 31.8577 107.788 32.1371C108.533 32.3897 109.216 32.9817 109.759 33.84C109.867 34.0102 109.856 34.2277 109.744 34.3946V34.3946C109.522 34.7234 109.027 34.7022 108.768 34.4019C108.421 34.0004 108.025 33.7171 107.604 33.5741C106.966 33.3578 106.302 33.4739 105.707 33.906C105.112 34.3381 104.617 35.0641 104.29 35.9807C104.006 36.7787 103.863 37.6858 103.875 38.6022C103.878 38.8347 103.716 39.0401 103.487 39.0782V39.0782Z" fill="#3272B8"/>
<path d="M112.766 46.5899C112.568 46.957 112.059 46.982 111.872 46.6093C111.646 46.1601 111.458 45.6626 111.313 45.1295C111.077 44.2644 110.961 43.3263 110.972 42.3805C110.982 41.4347 111.12 40.5042 111.375 39.6537C111.63 38.8033 111.996 38.0536 112.447 37.4568C112.899 36.86 113.425 36.4306 113.99 36.1986C114.554 35.9666 115.143 35.9375 115.715 36.1134C116.287 36.2892 116.828 36.6659 117.301 37.2169C117.715 37.6995 118.069 38.3056 118.342 39.0019C118.414 39.1838 118.361 39.3895 118.217 39.5216V39.5216C117.957 39.7599 117.537 39.6538 117.38 39.3382C117.205 38.987 117.002 38.6746 116.775 38.4101C116.409 37.9835 115.989 37.6919 115.547 37.5557C115.104 37.4196 114.648 37.4421 114.211 37.6217C113.774 37.8014 113.367 38.1338 113.017 38.5958C112.668 39.0578 112.384 39.6382 112.187 40.2966C111.99 40.9549 111.883 41.6753 111.875 42.4075C111.866 43.1397 111.957 43.866 112.139 44.5356C112.286 45.0765 112.491 45.5699 112.742 45.9939C112.851 46.1765 112.867 46.403 112.766 46.5899V46.5899Z" fill="#3272B8"/>
<path d="M57.9978 53.6734C57.8983 53.5454 57.8793 53.3712 57.956 53.2283C58.4183 52.3666 59.0131 51.7169 59.6811 51.3472C60.4088 50.9444 61.1925 50.8909 61.9385 51.193C62.6844 51.4952 63.3609 52.1403 63.8871 53.051C64.3686 53.8844 64.7055 54.9079 64.8654 56.0173C64.8913 56.1969 64.7787 56.3661 64.6048 56.4179V56.4179C64.3811 56.4845 64.1522 56.3324 64.1134 56.1022C63.9735 55.2719 63.7107 54.5072 63.3462 53.8762C62.9176 53.1344 62.3666 52.609 61.759 52.3628C61.1514 52.1167 60.5131 52.1603 59.9204 52.4884C59.4854 52.7291 59.0885 53.1156 58.7544 53.6195C58.5804 53.882 58.1911 53.9221 57.9978 53.6734V53.6734Z" fill="#3272B8"/>
<path d="M45.688 44.7848C45.6356 44.5515 45.7375 44.3057 45.9575 44.2121C46.3636 44.0392 46.7847 43.971 47.2054 44.0112C47.7509 44.0632 48.2841 44.2964 48.7721 44.6963C49.26 45.0961 49.6923 45.6542 50.0424 46.3361C50.3531 46.9414 50.5932 47.6328 50.7513 48.3761C50.787 48.5438 50.7003 48.7124 50.5457 48.7865V48.7865C50.3192 48.895 50.0518 48.7581 49.9912 48.5144C49.8646 48.0058 49.6898 47.5313 49.4727 47.1084C49.1876 46.553 48.8354 46.0984 48.438 45.7727C48.0406 45.447 47.6063 45.2571 47.1619 45.2147C46.9598 45.1954 46.7576 45.2068 46.5579 45.2483C46.1907 45.3246 45.7701 45.1507 45.688 44.7848V44.7848Z" fill="#3272B8"/>
<path d="M88.4532 59.4709C88.2303 59.5324 88.0051 59.379 87.9908 59.1482C87.9453 58.4093 87.9779 57.662 88.088 56.939C88.2199 56.072 88.4605 55.2585 88.7946 54.5492C89.1286 53.84 89.5491 53.2503 90.0296 52.8168C90.5102 52.3833 91.0406 52.1155 91.5877 52.0299C92.1348 51.9443 92.6869 52.0429 93.2095 52.3195C93.7321 52.596 94.214 53.0446 94.6252 53.6373C95.0364 54.23 95.368 54.954 95.5993 55.7642C95.7993 56.4646 95.9207 57.2164 95.9583 57.9841C95.9681 58.1854 95.8091 58.3524 95.6078 58.3601V58.3601C95.3995 58.3681 95.2264 58.203 95.2141 57.995C95.179 57.3991 95.0819 56.8163 94.9263 56.2716C94.7379 55.6117 94.4678 55.022 94.1329 54.5392C93.798 54.0565 93.4054 53.6911 92.9797 53.4658C92.5541 53.2405 92.1044 53.1603 91.6587 53.23C91.2131 53.2996 90.7811 53.5178 90.3897 53.8709C89.9983 54.224 89.6558 54.7043 89.3837 55.282C89.1116 55.8597 88.9157 56.5223 88.8081 57.2285C88.7164 57.8314 88.6907 58.4549 88.7318 59.0707C88.744 59.2532 88.6295 59.4222 88.4532 59.4709V59.4709Z" fill="#3272B8"/>
<path d="M103.323 55.9755C103.133 55.9481 102.994 55.7795 103.01 55.5875C103.116 54.3763 103.43 53.2355 103.919 52.2986C104.453 51.2745 105.169 50.5441 105.968 50.2076C106.768 49.8711 107.612 49.9451 108.384 50.4193C109.1 50.8587 109.722 51.6217 110.178 52.6154C110.245 52.7612 110.214 52.9321 110.107 53.0508V53.0508C109.903 53.2749 109.534 53.2112 109.386 52.9466C109.041 52.3264 108.608 51.8453 108.122 51.5472C107.493 51.1609 106.805 51.1006 106.154 51.3747C105.503 51.6487 104.92 52.2437 104.485 53.0778C104.104 53.8078 103.854 54.6897 103.757 55.6283C103.735 55.8455 103.539 56.0066 103.323 55.9755V55.9755Z" fill="#3272B8"/>
<path d="M117.361 48.0954C117.197 48.0315 117.098 47.8626 117.129 47.6893C117.268 46.9139 117.494 46.1862 117.797 45.5441C118.138 44.8207 118.57 44.2221 119.063 43.7872C119.556 43.3523 120.1 43.0908 120.659 43.0198C121.092 42.9648 121.527 43.0248 121.946 43.1962C122.17 43.2875 122.275 43.5348 122.223 43.7705V43.7705C122.143 44.1369 121.724 44.314 121.356 44.2427C121.145 44.2018 120.931 44.1946 120.717 44.2217C120.261 44.2796 119.818 44.4925 119.417 44.8468C119.015 45.201 118.664 45.6886 118.386 46.2778C118.168 46.7385 117.999 47.2532 117.885 47.801C117.836 48.0383 117.587 48.1833 117.361 48.0954V48.0954Z" fill="#3272B8"/>
<path d="M126.307 39.0984C126.117 39.3545 125.727 39.3204 125.61 39.0242C125.17 37.9162 124.946 36.6108 124.973 35.2806C125.006 33.6882 125.398 32.171 126.074 31.0172C126.751 29.8634 127.664 29.1534 128.641 29.0221C129.538 28.9016 130.431 29.2763 131.178 30.0792C131.303 30.2132 131.326 30.4103 131.249 30.5764V30.5764C131.101 30.8964 130.666 30.9505 130.388 30.7328C129.868 30.3242 129.286 30.1452 128.702 30.2236C127.906 30.3306 127.162 30.9089 126.612 31.8487C126.061 32.7884 125.742 34.0242 125.715 35.3213C125.69 36.5166 125.915 37.6872 126.35 38.6446C126.417 38.7931 126.404 38.9673 126.307 39.0984V39.0984Z" fill="#3272B8"/>
<path d="M133.102 24.6755C132.898 24.9005 132.532 24.8366 132.438 24.5483C132.223 23.8895 132.078 23.1739 132.012 22.4322C131.925 21.4545 131.976 20.4574 132.162 19.5165C132.347 18.5757 132.662 17.716 133.083 17.0027C133.349 16.5517 133.653 16.1668 133.984 15.8584C134.259 15.603 134.674 15.776 134.757 16.1417V16.1417C134.81 16.3742 134.704 16.6107 134.519 16.7607C134.183 17.0319 133.879 17.3955 133.619 17.8369C133.276 18.4178 133.019 19.1181 132.868 19.8844C132.717 20.6507 132.675 21.463 132.746 22.2593C132.809 22.9597 132.957 23.6317 133.182 24.2359C133.237 24.3863 133.209 24.5564 133.102 24.6755V24.6755Z" fill="#3272B8"/>
<path d="M117.324 32.0502C117.131 32.0264 116.989 31.858 117.004 31.6644C117.081 30.6964 117.292 29.7675 117.621 28.9476C117.989 28.0311 118.494 27.2805 119.088 26.7653C119.682 26.2501 120.347 25.987 121.02 26.0005C121.597 26.012 122.165 26.2263 122.684 26.6264C122.845 26.7505 122.897 26.9666 122.83 27.1587V27.1587C122.709 27.5051 122.269 27.6123 121.942 27.4463C121.642 27.2939 121.328 27.2123 121.011 27.206C120.462 27.195 119.921 27.4093 119.437 27.8289C118.953 28.2486 118.542 28.86 118.242 29.6065C117.988 30.2404 117.82 30.9542 117.75 31.6993C117.73 31.9147 117.539 32.0767 117.324 32.0502V32.0502Z" fill="#3272B8"/>
<path d="M73.2983 58.8393C73.1337 58.7986 73.0237 58.6421 73.0498 58.4746C73.2051 57.4791 73.5825 56.5893 74.1224 55.9557C74.715 55.2604 75.46 54.9244 76.2099 55.0143C76.9598 55.1042 77.6598 55.6135 78.1712 56.4411C78.6318 57.1865 78.9091 58.1413 78.9617 59.1481C78.9714 59.3329 78.8211 59.4836 78.636 59.4847V59.4847C78.4501 59.4858 78.2998 59.3354 78.2873 59.1499C78.2368 58.397 78.0241 57.6856 77.6785 57.1261C77.2816 56.4838 76.7384 56.0886 76.1564 56.0188C75.5744 55.9491 74.9962 56.2098 74.5364 56.7494C74.1455 57.2081 73.8644 57.8398 73.7306 58.5497C73.6926 58.7509 73.4971 58.8884 73.2983 58.8393V58.8393Z" fill="#3272B8"/>
<path d="M82.5749 52.9351C82.3953 53.1198 82.0858 53.027 82.0524 52.7716C81.9867 52.27 81.9602 51.745 81.9748 51.2199C81.9952 50.4813 82.0964 49.7655 82.2691 49.1358C82.4419 48.5061 82.6811 47.9821 82.9654 47.61C83.2497 47.238 83.5704 47.0295 83.8991 47.0029C84.2278 46.9763 84.5543 47.1326 84.8498 47.4578C85.1452 47.783 85.4005 48.2671 85.5929 48.8673C85.7853 49.4675 85.909 50.1651 85.9529 50.8985C85.9856 51.4434 85.9735 51.9956 85.918 52.5278C85.8929 52.7691 85.6101 52.8749 85.4243 52.719V52.719C85.3394 52.6478 85.299 52.5372 85.314 52.4274C85.3735 51.9914 85.3904 51.5309 85.3632 51.0775C85.3323 50.5623 85.2455 50.0722 85.1103 49.6506C84.9751 49.229 84.7958 48.8889 84.5883 48.6605C84.3807 48.432 84.1514 48.3223 83.9205 48.3409C83.6896 48.3596 83.4643 48.506 83.2646 48.7674C83.0648 49.0287 82.8968 49.3969 82.7755 49.8392C82.6541 50.2815 82.583 50.7844 82.5687 51.3032C82.556 51.7619 82.5878 52.2205 82.6617 52.6473C82.6798 52.7517 82.6488 52.8592 82.5749 52.9351V52.9351Z" fill="#3272B8"/>
<path d="M97.5604 50.8821C97.3791 51.0598 97.0761 50.9637 97.0448 50.7117C96.9831 50.2155 96.9596 49.6976 96.9759 49.1806C96.9988 48.4562 97.0993 47.7551 97.2688 47.137C97.4383 46.519 97.6717 46.0024 97.9492 45.6315C98.2267 45.2605 98.5399 45.0461 98.8622 45.0067C99.1845 44.9672 99.5062 45.1038 99.7999 45.4048C100.094 45.7058 100.351 46.1623 100.549 46.7353C100.747 47.3083 100.881 47.9808 100.939 48.6953C100.983 49.2395 100.981 49.7958 100.936 50.3364C100.917 50.5664 100.656 50.681 100.467 50.5485V50.5485C100.372 50.482 100.323 50.3681 100.335 50.253C100.382 49.822 100.389 49.3728 100.353 48.9347C100.313 48.4328 100.219 47.9604 100.079 47.5579C99.9401 47.1554 99.7596 46.8347 99.5533 46.6232C99.3469 46.4118 99.1209 46.3158 98.8945 46.3435C98.6681 46.3713 98.4481 46.5219 98.2532 46.7825C98.0583 47.0431 97.8943 47.4059 97.7752 47.8401C97.6562 48.2742 97.5856 48.7668 97.5695 49.2756C97.5553 49.7239 97.5838 50.1732 97.6527 50.5936C97.67 50.6991 97.6368 50.8073 97.5604 50.8821V50.8821Z" fill="#3272B8"/>
<path d="M105.421 40.3174C105.231 40.4178 105 40.2939 104.988 40.0791C104.941 39.2665 104.993 38.4374 105.141 37.6825C105.317 36.7883 105.617 36.0469 105.996 35.5705C106.376 35.0941 106.814 34.9087 107.244 35.0422C107.641 35.1654 108.012 35.5541 108.309 36.1554C108.357 36.2531 108.357 36.3674 108.313 36.467V36.467C108.178 36.7722 107.728 36.7686 107.476 36.5501C107.376 36.4632 107.271 36.4019 107.163 36.3685C106.86 36.2747 106.553 36.405 106.286 36.7396C106.02 37.0743 105.809 37.5951 105.686 38.2233C105.575 38.7876 105.54 39.4111 105.585 40.0168C105.594 40.1406 105.531 40.2595 105.421 40.3174V40.3174Z" fill="#3272B8"/>
<path d="M66.2684 50.5C66.1041 50.5 65.9704 50.3667 65.9753 50.2025C65.9973 49.4541 66.1022 48.7283 66.2813 48.092C66.4841 47.3717 66.7736 46.7959 67.1162 46.4316C67.4588 46.0672 67.8404 45.9294 68.2165 46.0341C68.5925 46.1388 68.9477 46.4817 69.2405 47.0229C69.5333 47.5642 69.7517 48.2814 69.8703 49.0912C69.989 49.9009 70.0029 50.7699 69.9106 51.5968C69.8182 52.4237 69.6233 53.1745 69.3487 53.7619C69.2447 53.9843 69.1309 54.1797 69.0094 54.3458C68.7567 54.6912 68.32 54.4706 68.2825 54.0442V54.0442C68.2592 53.7791 68.4166 53.5309 68.5944 53.3327C68.72 53.1928 68.8362 53.0107 68.9387 52.7914C69.1317 52.3788 69.2686 51.8513 69.3335 51.2705C69.3983 50.6896 69.3885 50.0792 69.3052 49.5103C69.2219 48.9415 69.0684 48.4376 68.8627 48.0574C68.657 47.6772 68.4076 47.4363 68.1434 47.3628C67.8792 47.2892 67.6112 47.3861 67.3705 47.642C67.1299 47.898 66.9265 48.3025 66.784 48.8085C66.6653 49.2303 66.5929 49.7082 66.5722 50.2025C66.5653 50.3667 66.4327 50.5 66.2684 50.5V50.5Z" fill="#3272B8"/>
<path d="M74.3377 40.916C74.1546 40.9626 73.9745 40.8298 73.9719 40.6409C73.9642 40.0931 74.0011 39.5457 74.0812 39.0259C74.1791 38.3906 74.3391 37.8126 74.5493 37.3347C74.7595 36.8567 75.0147 36.4908 75.2961 36.2639C75.5774 36.037 75.8778 35.9549 76.1751 36.0235C76.4724 36.0922 76.7591 36.3099 77.0141 36.6607C77.2691 37.0114 77.4859 37.4863 77.6486 38.0504C77.8113 38.6145 77.9157 39.2535 77.9542 39.9204C77.9826 40.411 77.9747 40.9076 77.9314 41.3902C77.9104 41.6234 77.6433 41.7357 77.455 41.5965V41.5965C77.3631 41.5286 77.3166 41.4157 77.3298 41.3022C77.3758 40.9084 77.3875 40.4978 77.3641 40.0928C77.3371 39.6244 77.2637 39.1755 77.1494 38.7792C77.0352 38.383 76.8828 38.0494 76.7037 37.803C76.5246 37.5566 76.3232 37.4036 76.1143 37.3554C75.9055 37.3072 75.6945 37.3649 75.4968 37.5242C75.2992 37.6836 75.12 37.9407 74.9723 38.2764C74.8246 38.6122 74.7122 39.0182 74.6435 39.4645C74.5866 39.8334 74.5607 40.2222 74.5668 40.611C74.569 40.7533 74.4756 40.8808 74.3377 40.916V40.916Z" fill="#3272B8"/>
<path d="M90.539 41.8018C90.3553 41.9689 90.0622 41.8678 90.0339 41.6211C89.9879 41.218 89.9667 40.8015 89.9716 40.3835C89.9787 39.7667 90.0421 39.1597 90.1578 38.6004C90.2736 38.0411 90.4392 37.5412 90.6445 37.132C90.8497 36.7228 91.0902 36.413 91.3509 36.2217C91.6116 36.0304 91.887 35.9618 92.16 36.0202C92.433 36.0785 92.6978 36.2626 92.9378 36.5609C93.1779 36.8592 93.3881 37.2654 93.5554 37.7542C93.704 38.1882 93.8159 38.6792 93.886 39.2026C93.9022 39.3237 93.8415 39.4415 93.7353 39.5016V39.5016C93.5449 39.6093 93.3058 39.4874 93.2656 39.2724C93.2188 39.0227 93.1578 38.7869 93.084 38.5712C92.9664 38.2278 92.8188 37.9424 92.6501 37.7329C92.4815 37.5233 92.2955 37.394 92.1038 37.353C91.912 37.312 91.7185 37.3602 91.5354 37.4946C91.3522 37.629 91.1833 37.8466 91.0391 38.1341C90.8949 38.4216 90.7786 38.7727 90.6973 39.1656C90.6159 39.5585 90.5714 39.9849 90.5664 40.4182C90.5621 40.7901 90.5871 41.1603 90.6399 41.5119C90.656 41.6194 90.6194 41.7287 90.539 41.8018V41.8018Z" fill="#3272B8"/>
<path d="M83.539 33.8018C83.3553 33.9689 83.0622 33.8678 83.0339 33.6211C82.9879 33.218 82.9667 32.8015 82.9716 32.3835C82.9787 31.7667 83.0421 31.1597 83.1578 30.6004C83.2736 30.0411 83.4392 29.5412 83.6445 29.132C83.8497 28.7228 84.0902 28.413 84.3509 28.2217C84.6116 28.0304 84.887 27.9618 85.16 28.0202C85.433 28.0785 85.6978 28.2626 85.9378 28.5609C86.1779 28.8592 86.3881 29.2654 86.5554 29.7542C86.704 30.1882 86.8159 30.6792 86.886 31.2026C86.9022 31.3237 86.8415 31.4415 86.7353 31.5016V31.5016C86.5449 31.6093 86.3058 31.4874 86.2656 31.2724C86.2188 31.0227 86.1578 30.7869 86.084 30.5712C85.9664 30.2278 85.8188 29.9424 85.6501 29.7329C85.4815 29.5233 85.2955 29.394 85.1038 29.353C84.912 29.312 84.7185 29.3602 84.5354 29.4946C84.3522 29.629 84.1833 29.8466 84.0391 30.1341C83.8949 30.4216 83.7786 30.7727 83.6973 31.1656C83.6159 31.5585 83.5714 31.9849 83.5664 32.4182C83.5621 32.7901 83.5871 33.1603 83.6399 33.5119C83.656 33.6194 83.6194 33.7287 83.539 33.8018V33.8018Z" fill="#3272B8"/>
<path d="M68.3709 32.0838C68.1833 32.1522 67.9824 32.0221 67.976 31.8225C67.9483 30.9547 68.033 30.0842 68.2217 29.3183C68.4393 28.4351 68.7825 27.7423 69.1963 27.3512C69.6101 26.9601 70.0702 26.8935 70.5029 27.1621C70.908 27.4136 71.2669 27.9454 71.5294 28.6798C71.5638 28.776 71.5511 28.8823 71.4983 28.9698V28.9698C71.343 29.227 70.9468 29.184 70.7882 28.9288C70.6548 28.7142 70.5048 28.5522 70.3446 28.4527C70.0407 28.2641 69.7174 28.3109 69.4268 28.5856C69.1361 28.8603 68.895 29.347 68.7421 29.9674C68.6057 30.521 68.5467 31.1524 68.5714 31.7795C68.5767 31.9137 68.4971 32.0377 68.3709 32.0838V32.0838Z" fill="#3272B8"/>
<path d="M97.2684 31.5C97.1041 31.5 96.9704 31.3668 96.9753 31.2025C96.9904 30.6875 97.0449 30.1814 97.1366 29.7067C97.2459 29.1408 97.4057 28.6315 97.6062 28.2104C97.8066 27.7894 98.0434 27.4656 98.3019 27.2592C98.5603 27.0528 98.8348 26.9682 99.1084 27.0107C99.382 27.0531 99.6488 27.2216 99.8922 27.5059C100.136 27.7901 100.35 28.1839 100.523 28.6628C100.696 29.1418 100.823 29.6956 100.897 30.2899C100.956 30.7607 100.979 31.249 100.968 31.7355C100.964 31.93 100.773 32.0615 100.587 32.0037V32.0037C100.455 31.9626 100.369 31.8368 100.373 31.6988C100.383 31.346 100.366 30.9914 100.324 30.6499C100.272 30.2324 100.183 29.8434 100.061 29.507C99.94 29.1705 99.789 28.8939 99.6181 28.6942C99.4471 28.4946 99.2597 28.3762 99.0675 28.3464C98.8753 28.3165 98.6825 28.376 98.5009 28.521C98.3194 28.666 98.153 28.8934 98.0122 29.1892C97.8714 29.4849 97.7591 29.8427 97.6823 30.2402C97.6232 30.5465 97.5861 30.8713 97.5722 31.2026C97.5653 31.3667 97.4327 31.5 97.2684 31.5V31.5Z" fill="#3272B8"/>
<path d="M110.626 27.4742C110.582 27.3748 110.581 27.2608 110.629 27.1632C110.846 26.7206 111.105 26.3903 111.386 26.1968C111.699 25.9814 112.031 25.9421 112.352 26.0824C112.673 26.2227 112.974 26.5383 113.229 27.0015C113.462 27.4258 113.649 27.9621 113.778 28.5701C113.8 28.6753 113.765 28.784 113.687 28.8583V28.8583C113.505 29.0326 113.199 28.9356 113.124 28.6947C113.049 28.4506 112.958 28.2308 112.855 28.0424C112.676 27.717 112.464 27.4953 112.239 27.3968C112.013 27.2982 111.78 27.3258 111.56 27.4771C111.526 27.5003 111.493 27.5262 111.461 27.5548C111.21 27.7745 110.761 27.7786 110.626 27.4742V27.4742Z" fill="#3272B8"/>
<path d="M52.2052 43.643C52.0914 43.5877 52.0234 43.4674 52.0383 43.3417C52.1145 42.6978 52.2535 42.0991 52.4455 41.5895C52.6582 41.0251 52.9295 40.5875 53.2354 40.3153C53.5413 40.0432 53.8722 39.945 54.199 40.0294C54.5257 40.1138 54.8382 40.3782 55.1087 40.7992C55.3792 41.2202 55.5994 41.7848 55.7497 42.443C55.9 43.1012 55.9759 43.8326 55.9706 44.5725C55.9653 45.3125 55.879 46.038 55.7193 46.685C55.6535 46.9515 55.5761 47.2012 55.4885 47.4308C55.3524 47.7876 54.8966 47.7286 54.7913 47.3616V47.3616C54.7541 47.2316 54.7789 47.093 54.8449 46.975C54.9889 46.7176 55.1094 46.3984 55.1991 46.0349C55.3113 45.5804 55.3719 45.0707 55.3757 44.551C55.3794 44.0312 55.3261 43.5173 55.2205 43.055C55.1148 42.5926 54.9602 42.196 54.7702 41.9003C54.5802 41.6045 54.3607 41.4188 54.1311 41.3595C53.9016 41.3002 53.6691 41.3692 53.4542 41.5604C53.2394 41.7515 53.0488 42.059 52.8994 42.4555C52.7933 42.7369 52.7102 43.0571 52.6536 43.401C52.6192 43.6094 52.3953 43.7352 52.2052 43.643V43.643Z" fill="#3272B8"/>
<path d="M59.6261 34.4742C59.5819 34.3748 59.5811 34.2607 59.6291 34.1631C59.9391 33.5319 60.33 33.1339 60.7471 33.0283C61.1974 32.9142 61.6516 33.1475 62.0352 33.6901C62.4189 34.2327 62.7092 35.0523 62.8588 36.0148C62.9814 36.8034 63.0034 37.6496 62.925 38.4589C62.902 38.6961 62.627 38.8052 62.4398 38.6577V38.6577C62.3515 38.5881 62.3081 38.4763 62.3222 38.3648C62.4013 37.7396 62.3929 37.0731 62.2971 36.4567C62.192 35.7806 61.9881 35.2048 61.7186 34.8237C61.4491 34.4425 61.13 34.2786 60.8137 34.3587C60.6919 34.3896 60.5732 34.4559 60.4606 34.5548C60.2101 34.7745 59.7614 34.7786 59.6261 34.4742V34.4742Z" fill="#3272B8"/>
<path d="M46.458 29.542C46.4293 29.3205 46.5259 29.0856 46.7421 29.0295C46.9216 28.983 47.1035 28.9913 47.283 29.0551C47.5741 29.1586 47.8515 29.4056 48.0953 29.7785C48.3391 30.1514 48.5432 30.6409 48.6931 31.2121C48.8238 31.7101 48.9104 32.2594 48.9486 32.8297C48.9583 32.9753 48.8576 33.1042 48.7148 33.1341V33.1341C48.5342 33.172 48.3633 33.0385 48.3463 32.8548C48.3149 32.5167 48.2591 32.1916 48.1807 31.8928C48.0754 31.4916 47.932 31.1477 47.7608 30.8858C47.5895 30.6238 47.3947 30.4503 47.1901 30.3776V30.3776C46.9101 30.2781 46.5332 30.1225 46.495 29.8278L46.458 29.542Z" fill="#3272B8"/>
<path d="M59.1838 54.2833C59.1031 54.1379 59.1165 53.9565 59.2301 53.8351C59.5516 53.4915 59.9157 53.2458 60.302 53.1133C60.7621 52.9554 61.2407 52.9626 61.6986 53.1344C62.1566 53.3062 62.581 53.6376 62.9375 54.1018C63.2477 54.5056 63.4987 55.0001 63.6758 55.5538C63.7232 55.702 63.6587 55.8615 63.5258 55.9425V55.9425C63.3267 56.0639 63.0671 55.9597 62.9827 55.7423C62.8545 55.4121 62.6906 55.1148 62.4971 54.8628C62.2205 54.5026 61.891 54.2453 61.5356 54.112C61.1802 53.9787 60.8089 53.9731 60.4518 54.0957C60.2644 54.16 60.0836 54.2586 59.9135 54.3887C59.6821 54.5656 59.3253 54.538 59.1838 54.2833V54.2833Z" fill="#3272B8"/>
<path d="M89.4152 59.2904C89.2148 59.3524 89.0062 59.2198 88.9903 59.0107C88.9528 58.519 88.9696 58.0204 89.0407 57.5352C89.1309 56.9184 89.3067 56.337 89.5566 55.8288C89.8065 55.3207 90.1249 54.8971 90.4911 54.5856C90.8573 54.2741 91.2631 54.0817 91.6821 54.0209C92.1011 53.9601 92.5239 54.0323 92.9232 54.2327C93.3224 54.4332 93.689 54.7574 93.9991 55.1843C94.3093 55.6112 94.5561 56.1313 94.7235 56.7107C94.8609 57.1862 94.9423 57.693 94.9646 58.2085C94.9727 58.395 94.8185 58.5449 94.6319 58.5419V58.5419C94.4475 58.539 94.3011 58.3879 94.2907 58.2038C94.2693 57.8279 94.2075 57.4589 94.1071 57.1114C93.9772 56.6617 93.7857 56.2581 93.5449 55.9268C93.3042 55.5955 93.0197 55.3439 92.7099 55.1883C92.4001 55.0328 92.0719 54.9768 91.7468 55.024C91.4216 55.0711 91.1066 55.2204 90.8225 55.4622C90.5383 55.7039 90.2912 56.0326 90.0973 56.427C89.9033 56.8214 89.7669 57.2726 89.6969 57.7512C89.6407 58.1351 89.6282 58.5298 89.6595 58.9186C89.6728 59.0844 89.5741 59.2413 89.4152 59.2904V59.2904Z" fill="#3272B8"/>
<path d="M104.313 55.6197C104.156 55.5677 104.058 55.4103 104.089 55.248C104.223 54.5543 104.467 53.9176 104.801 53.3931C105.179 52.7983 105.659 52.3704 106.188 52.1558C106.717 51.9413 107.276 51.9484 107.802 52.1763C108.264 52.3759 108.686 52.7384 109.033 53.2315C109.124 53.3601 109.116 53.5316 109.024 53.6591V53.6591C108.861 53.8841 108.52 53.8703 108.332 53.6666C108.116 53.4332 107.874 53.2561 107.616 53.1445C107.207 52.9677 106.774 52.9622 106.363 53.1287C105.953 53.2952 105.58 53.6272 105.287 54.0889C105.057 54.4503 104.882 54.8803 104.773 55.349C104.725 55.555 104.514 55.6862 104.313 55.6197V55.6197Z" fill="#3272B8"/>
<path d="M113.526 44.6415C113.374 44.8141 113.093 44.7346 113.064 44.5064C112.939 43.5199 112.939 42.4557 113.068 41.462C113.221 40.2764 113.546 39.2766 113.979 38.6585C114.412 38.0404 114.921 37.8486 115.407 38.1206C115.875 38.3818 116.288 39.0525 116.573 40.0086C116.596 40.0853 116.586 40.1681 116.546 40.2377V40.2377C116.415 40.4686 116.06 40.4281 115.949 40.1866C115.763 39.7841 115.54 39.499 115.296 39.363C114.934 39.1603 114.554 39.3032 114.231 39.7639C113.909 40.2247 113.667 40.9699 113.552 41.8536C113.444 42.6919 113.458 43.5976 113.591 44.4103C113.605 44.4933 113.581 44.5783 113.526 44.6415V44.6415Z" fill="#3272B8"/>
<path d="M127.508 37.5651C127.354 37.73 127.08 37.6468 127.054 37.4226C126.947 36.525 126.943 35.5665 127.044 34.6571C127.167 33.561 127.435 32.6019 127.805 31.9383C128.174 31.2747 128.624 30.9462 129.078 31.0072C129.507 31.0647 129.916 31.465 130.245 32.1465C130.284 32.2274 130.287 32.3208 130.257 32.4055V32.4055C130.151 32.7013 129.719 32.7176 129.488 32.5043C129.348 32.3755 129.201 32.2986 129.051 32.2785C128.712 32.233 128.377 32.4779 128.102 32.9725C127.826 33.4672 127.626 34.182 127.535 34.9991C127.449 35.7697 127.465 36.5877 127.579 37.3325C127.592 37.4168 127.566 37.5028 127.508 37.5651V37.5651Z" fill="#3272B8"/>
<path d="M133.508 23.5651C133.354 23.73 133.08 23.6467 133.054 23.4226C132.991 22.897 132.964 22.3481 132.973 21.7977C132.985 21.054 133.063 20.3263 133.202 19.6678C133.341 19.0094 133.537 18.4368 133.775 17.9918C133.836 17.8789 133.899 17.7749 133.964 17.6803C134.197 17.341 134.617 17.5423 134.649 17.9525V17.9525C134.668 18.1893 134.533 18.4105 134.373 18.5859C134.269 18.6993 134.171 18.8422 134.08 19.0124C133.902 19.3441 133.756 19.7709 133.652 20.2617C133.549 20.7525 133.49 21.2948 133.481 21.8492C133.473 22.3555 133.506 22.8602 133.579 23.3325C133.592 23.4168 133.566 23.5028 133.508 23.5651V23.5651Z" fill="#3272B8"/>
<path d="M119.179 32.4923C119.064 32.4599 118.987 32.3531 118.994 32.2345C119.044 31.4411 119.169 30.688 119.359 30.0395C119.566 29.3359 119.843 28.78 120.162 28.427C120.482 28.074 120.832 27.9362 121.18 28.0273C121.495 28.11 121.797 28.3787 122.062 28.8099C122.115 28.896 122.126 29.0009 122.098 29.0981V29.0981C122.004 29.4234 121.534 29.4597 121.222 29.3265C121.191 29.3129 121.159 29.3019 121.126 29.2935C120.868 29.2256 120.606 29.3283 120.368 29.5914C120.13 29.8545 119.924 30.2689 119.77 30.7933C119.641 31.2297 119.553 31.7297 119.51 32.2579C119.497 32.4224 119.338 32.5373 119.179 32.4923V32.4923Z" fill="#3272B8"/>
<path d="M135.471 12.5C135.471 13.9279 134.239 15.4442 131.6 16.9299C129.002 18.3925 125.208 19.7262 120.478 20.8524C111.026 23.1031 97.9412 24.5 83.4709 24.5C69.0006 24.5 55.9163 23.1031 46.4636 20.8524C41.7333 19.7262 37.9402 18.3925 35.3419 16.9299C32.7027 15.4442 31.4709 13.9279 31.4709 12.5C31.4709 11.0721 32.7027 9.55577 35.3419 8.07015C37.9402 6.60747 41.7333 5.27383 46.4636 4.14757C55.9163 1.89693 69.0006 0.5 83.4709 0.5C97.9412 0.5 111.026 1.89693 120.478 4.14757C125.208 5.27383 129.002 6.60747 131.6 8.07015C134.239 9.55577 135.471 11.0721 135.471 12.5Z" fill="#F9F6F1" stroke="black"/>
<path d="M4.05339 61.7184L59.6677 58.4273C60.3891 58.3847 61.0042 58.9439 61.0302 59.666V59.666C61.0562 60.3882 60.4829 60.9902 59.7604 60.9996L4.05339 61.7184Z" fill="black"/>
<path d="M2.68659 45.0927L41.4136 43.1987C42.1237 43.164 42.7215 43.724 42.7331 44.4348V44.4348C42.7448 45.1456 42.1657 45.7249 41.4549 45.7136L2.68659 45.0927Z" fill="black"/>
<path d="M0.054071 52.2878L47.1392 49.3247C47.8506 49.28 48.4589 49.8309 48.4846 50.5433V50.5433C48.5102 51.2557 47.9432 51.8489 47.2304 51.8555L0.054071 52.2878Z" fill="black"/>
</svg>
